<?xml version="1.0" encoding="utf-8" standalone="no"?>
<!DOCTYPE svg PUBLIC "-//W3C//DTD SVG 1.1//EN"
  "http://www.w3.org/Graphics/SVG/1.1/DTD/svg11.dtd">
<svg xmlns:xlink="http://www.w3.org/1999/xlink" width="538.209286pt" height="302.997pt" viewBox="0 0 538.209286 302.997" xmlns="http://www.w3.org/2000/svg" version="1.1">
 <metadata>
  <rdf:RDF xmlns:dc="http://purl.org/dc/elements/1.1/" xmlns:cc="http://creativecommons.org/ns#" xmlns:rdf="http://www.w3.org/1999/02/22-rdf-syntax-ns#">
   <cc:Work>
    <dc:type rdf:resource="http://purl.org/dc/dcmitype/StillImage"/>
    <dc:date>2023-07-29T00:27:02.684763</dc:date>
    <dc:format>image/svg+xml</dc:format>
    <dc:creator>
     <cc:Agent>
      <dc:title>Matplotlib v3.5.3, https://matplotlib.org/</dc:title>
     </cc:Agent>
    </dc:creator>
   </cc:Work>
  </rdf:RDF>
 </metadata>
 <defs>
  <style type="text/css">*{stroke-linejoin: round; stroke-linecap: butt}</style>
 </defs>
 <g id="figure_1">
  <g id="patch_1">
   <path d="M -0 302.997 
L 538.209286 302.997 
L 538.209286 0 
L -0 0 
z
" style="fill: #ffffff"/>
  </g>
  <g id="axes_1">
   <g id="patch_2">
    <path d="M 158.855 273.312 
L 515.975 273.312 
L 515.975 7.2 
L 158.855 7.2 
z
" style="fill: #ffffff"/>
   </g>
   <g id="matplotlib.axis_1">
    <g id="xtick_1">
     <g id="line2d_1">
      <path d="M 158.855 273.312 
L 158.855 7.2 
" clip-path="url(#p0ea83892d3)" style="fill: none; stroke: #808080; stroke-opacity: 0.9; stroke-width: 0.75; stroke-linecap: square"/>
     </g>
     <g id="text_1">
      <!-- 0 -->
      <g transform="translate(153.765 292.4695)scale(0.16 -0.16)">
       <defs>
        <path id="DejaVuSans-30" d="M 2034 4250 
Q 1547 4250 1301 3770 
Q 1056 3291 1056 2328 
Q 1056 1369 1301 889 
Q 1547 409 2034 409 
Q 2525 409 2770 889 
Q 3016 1369 3016 2328 
Q 3016 3291 2770 3770 
Q 2525 4250 2034 4250 
z
M 2034 4750 
Q 2819 4750 3233 4129 
Q 3647 3509 3647 2328 
Q 3647 1150 3233 529 
Q 2819 -91 2034 -91 
Q 1250 -91 836 529 
Q 422 1150 422 2328 
Q 422 3509 836 4129 
Q 1250 4750 2034 4750 
z
" transform="scale(0.015625)"/>
       </defs>
       <use xlink:href="#DejaVuSans-30"/>
      </g>
     </g>
    </g>
    <g id="xtick_2">
     <g id="line2d_2">
      <path d="M 222.309158 273.312 
L 222.309158 7.2 
" clip-path="url(#p0ea83892d3)" style="fill: none; stroke: #808080; stroke-opacity: 0.9; stroke-width: 0.75; stroke-linecap: square"/>
     </g>
     <g id="text_2">
      <!-- 100 -->
      <g transform="translate(207.039158 292.4695)scale(0.16 -0.16)">
       <defs>
        <path id="DejaVuSans-31" d="M 794 531 
L 1825 531 
L 1825 4091 
L 703 3866 
L 703 4441 
L 1819 4666 
L 2450 4666 
L 2450 531 
L 3481 531 
L 3481 0 
L 794 0 
L 794 531 
z
" transform="scale(0.015625)"/>
       </defs>
       <use xlink:href="#DejaVuSans-31"/>
       <use xlink:href="#DejaVuSans-30" x="63.623047"/>
       <use xlink:href="#DejaVuSans-30" x="127.246094"/>
      </g>
     </g>
    </g>
    <g id="xtick_3">
     <g id="line2d_3">
      <path d="M 285.763316 273.312 
L 285.763316 7.2 
" clip-path="url(#p0ea83892d3)" style="fill: none; stroke: #808080; stroke-opacity: 0.9; stroke-width: 0.75; stroke-linecap: square"/>
     </g>
     <g id="text_3">
      <!-- 200 -->
      <g transform="translate(270.493316 292.4695)scale(0.16 -0.16)">
       <defs>
        <path id="DejaVuSans-32" d="M 1228 531 
L 3431 531 
L 3431 0 
L 469 0 
L 469 531 
Q 828 903 1448 1529 
Q 2069 2156 2228 2338 
Q 2531 2678 2651 2914 
Q 2772 3150 2772 3378 
Q 2772 3750 2511 3984 
Q 2250 4219 1831 4219 
Q 1534 4219 1204 4116 
Q 875 4013 500 3803 
L 500 4441 
Q 881 4594 1212 4672 
Q 1544 4750 1819 4750 
Q 2544 4750 2975 4387 
Q 3406 4025 3406 3419 
Q 3406 3131 3298 2873 
Q 3191 2616 2906 2266 
Q 2828 2175 2409 1742 
Q 1991 1309 1228 531 
z
" transform="scale(0.015625)"/>
       </defs>
       <use xlink:href="#DejaVuSans-32"/>
       <use xlink:href="#DejaVuSans-30" x="63.623047"/>
       <use xlink:href="#DejaVuSans-30" x="127.246094"/>
      </g>
     </g>
    </g>
    <g id="xtick_4">
     <g id="line2d_4">
      <path d="M 349.217473 273.312 
L 349.217473 7.2 
" clip-path="url(#p0ea83892d3)" style="fill: none; stroke: #808080; stroke-opacity: 0.9; stroke-width: 0.75; stroke-linecap: square"/>
     </g>
     <g id="text_4">
      <!-- 300 -->
      <g transform="translate(333.947473 292.4695)scale(0.16 -0.16)">
       <defs>
        <path id="DejaVuSans-33" d="M 2597 2516 
Q 3050 2419 3304 2112 
Q 3559 1806 3559 1356 
Q 3559 666 3084 287 
Q 2609 -91 1734 -91 
Q 1441 -91 1130 -33 
Q 819 25 488 141 
L 488 750 
Q 750 597 1062 519 
Q 1375 441 1716 441 
Q 2309 441 2620 675 
Q 2931 909 2931 1356 
Q 2931 1769 2642 2001 
Q 2353 2234 1838 2234 
L 1294 2234 
L 1294 2753 
L 1863 2753 
Q 2328 2753 2575 2939 
Q 2822 3125 2822 3475 
Q 2822 3834 2567 4026 
Q 2313 4219 1838 4219 
Q 1578 4219 1281 4162 
Q 984 4106 628 3988 
L 628 4550 
Q 988 4650 1302 4700 
Q 1616 4750 1894 4750 
Q 2613 4750 3031 4423 
Q 3450 4097 3450 3541 
Q 3450 3153 3228 2886 
Q 3006 2619 2597 2516 
z
" transform="scale(0.015625)"/>
       </defs>
       <use xlink:href="#DejaVuSans-33"/>
       <use xlink:href="#DejaVuSans-30" x="63.623047"/>
       <use xlink:href="#DejaVuSans-30" x="127.246094"/>
      </g>
     </g>
    </g>
    <g id="xtick_5">
     <g id="line2d_5">
      <path d="M 412.671631 273.312 
L 412.671631 7.2 
" clip-path="url(#p0ea83892d3)" style="fill: none; stroke: #808080; stroke-opacity: 0.9; stroke-width: 0.75; stroke-linecap: square"/>
     </g>
     <g id="text_5">
      <!-- 400 -->
      <g transform="translate(397.401631 292.4695)scale(0.16 -0.16)">
       <defs>
        <path id="DejaVuSans-34" d="M 2419 4116 
L 825 1625 
L 2419 1625 
L 2419 4116 
z
M 2253 4666 
L 3047 4666 
L 3047 1625 
L 3713 1625 
L 3713 1100 
L 3047 1100 
L 3047 0 
L 2419 0 
L 2419 1100 
L 313 1100 
L 313 1709 
L 2253 4666 
z
" transform="scale(0.015625)"/>
       </defs>
       <use xlink:href="#DejaVuSans-34"/>
       <use xlink:href="#DejaVuSans-30" x="63.623047"/>
       <use xlink:href="#DejaVuSans-30" x="127.246094"/>
      </g>
     </g>
    </g>
    <g id="xtick_6">
     <g id="line2d_6">
      <path d="M 476.125789 273.312 
L 476.125789 7.2 
" clip-path="url(#p0ea83892d3)" style="fill: none; stroke: #808080; stroke-opacity: 0.9; stroke-width: 0.75; stroke-linecap: square"/>
     </g>
     <g id="text_6">
      <!-- 500 -->
      <g transform="translate(460.855789 292.4695)scale(0.16 -0.16)">
       <defs>
        <path id="DejaVuSans-35" d="M 691 4666 
L 3169 4666 
L 3169 4134 
L 1269 4134 
L 1269 2991 
Q 1406 3038 1543 3061 
Q 1681 3084 1819 3084 
Q 2600 3084 3056 2656 
Q 3513 2228 3513 1497 
Q 3513 744 3044 326 
Q 2575 -91 1722 -91 
Q 1428 -91 1123 -41 
Q 819 9 494 109 
L 494 744 
Q 775 591 1075 516 
Q 1375 441 1709 441 
Q 2250 441 2565 725 
Q 2881 1009 2881 1497 
Q 2881 1984 2565 2268 
Q 2250 2553 1709 2553 
Q 1456 2553 1204 2497 
Q 953 2441 691 2322 
L 691 4666 
z
" transform="scale(0.015625)"/>
       </defs>
       <use xlink:href="#DejaVuSans-35"/>
       <use xlink:href="#DejaVuSans-30" x="63.623047"/>
       <use xlink:href="#DejaVuSans-30" x="127.246094"/>
      </g>
     </g>
    </g>
   </g>
   <g id="matplotlib.axis_2">
    <g id="ytick_1">
     <g id="text_7">
      <!-- breslow &lt; 0.8 -->
      <g transform="translate(40.9575 251.517359)scale(0.16 -0.16)">
       <defs>
        <path id="DejaVuSans-62" d="M 3116 1747 
Q 3116 2381 2855 2742 
Q 2594 3103 2138 3103 
Q 1681 3103 1420 2742 
Q 1159 2381 1159 1747 
Q 1159 1113 1420 752 
Q 1681 391 2138 391 
Q 2594 391 2855 752 
Q 3116 1113 3116 1747 
z
M 1159 2969 
Q 1341 3281 1617 3432 
Q 1894 3584 2278 3584 
Q 2916 3584 3314 3078 
Q 3713 2572 3713 1747 
Q 3713 922 3314 415 
Q 2916 -91 2278 -91 
Q 1894 -91 1617 61 
Q 1341 213 1159 525 
L 1159 0 
L 581 0 
L 581 4863 
L 1159 4863 
L 1159 2969 
z
" transform="scale(0.015625)"/>
        <path id="DejaVuSans-72" d="M 2631 2963 
Q 2534 3019 2420 3045 
Q 2306 3072 2169 3072 
Q 1681 3072 1420 2755 
Q 1159 2438 1159 1844 
L 1159 0 
L 581 0 
L 581 3500 
L 1159 3500 
L 1159 2956 
Q 1341 3275 1631 3429 
Q 1922 3584 2338 3584 
Q 2397 3584 2469 3576 
Q 2541 3569 2628 3553 
L 2631 2963 
z
" transform="scale(0.015625)"/>
        <path id="DejaVuSans-65" d="M 3597 1894 
L 3597 1613 
L 953 1613 
Q 991 1019 1311 708 
Q 1631 397 2203 397 
Q 2534 397 2845 478 
Q 3156 559 3463 722 
L 3463 178 
Q 3153 47 2828 -22 
Q 2503 -91 2169 -91 
Q 1331 -91 842 396 
Q 353 884 353 1716 
Q 353 2575 817 3079 
Q 1281 3584 2069 3584 
Q 2775 3584 3186 3129 
Q 3597 2675 3597 1894 
z
M 3022 2063 
Q 3016 2534 2758 2815 
Q 2500 3097 2075 3097 
Q 1594 3097 1305 2825 
Q 1016 2553 972 2059 
L 3022 2063 
z
" transform="scale(0.015625)"/>
        <path id="DejaVuSans-73" d="M 2834 3397 
L 2834 2853 
Q 2591 2978 2328 3040 
Q 2066 3103 1784 3103 
Q 1356 3103 1142 2972 
Q 928 2841 928 2578 
Q 928 2378 1081 2264 
Q 1234 2150 1697 2047 
L 1894 2003 
Q 2506 1872 2764 1633 
Q 3022 1394 3022 966 
Q 3022 478 2636 193 
Q 2250 -91 1575 -91 
Q 1294 -91 989 -36 
Q 684 19 347 128 
L 347 722 
Q 666 556 975 473 
Q 1284 391 1588 391 
Q 1994 391 2212 530 
Q 2431 669 2431 922 
Q 2431 1156 2273 1281 
Q 2116 1406 1581 1522 
L 1381 1569 
Q 847 1681 609 1914 
Q 372 2147 372 2553 
Q 372 3047 722 3315 
Q 1072 3584 1716 3584 
Q 2034 3584 2315 3537 
Q 2597 3491 2834 3397 
z
" transform="scale(0.015625)"/>
        <path id="DejaVuSans-6c" d="M 603 4863 
L 1178 4863 
L 1178 0 
L 603 0 
L 603 4863 
z
" transform="scale(0.015625)"/>
        <path id="DejaVuSans-6f" d="M 1959 3097 
Q 1497 3097 1228 2736 
Q 959 2375 959 1747 
Q 959 1119 1226 758 
Q 1494 397 1959 397 
Q 2419 397 2687 759 
Q 2956 1122 2956 1747 
Q 2956 2369 2687 2733 
Q 2419 3097 1959 3097 
z
M 1959 3584 
Q 2709 3584 3137 3096 
Q 3566 2609 3566 1747 
Q 3566 888 3137 398 
Q 2709 -91 1959 -91 
Q 1206 -91 779 398 
Q 353 888 353 1747 
Q 353 2609 779 3096 
Q 1206 3584 1959 3584 
z
" transform="scale(0.015625)"/>
        <path id="DejaVuSans-77" d="M 269 3500 
L 844 3500 
L 1563 769 
L 2278 3500 
L 2956 3500 
L 3675 769 
L 4391 3500 
L 4966 3500 
L 4050 0 
L 3372 0 
L 2619 2869 
L 1863 0 
L 1184 0 
L 269 3500 
z
" transform="scale(0.015625)"/>
        <path id="DejaVuSans-20" transform="scale(0.015625)"/>
        <path id="DejaVuSans-3c" d="M 4684 3150 
L 1459 2003 
L 4684 863 
L 4684 294 
L 678 1747 
L 678 2266 
L 4684 3719 
L 4684 3150 
z
" transform="scale(0.015625)"/>
        <path id="DejaVuSans-2e" d="M 684 794 
L 1344 794 
L 1344 0 
L 684 0 
L 684 794 
z
" transform="scale(0.015625)"/>
        <path id="DejaVuSans-38" d="M 2034 2216 
Q 1584 2216 1326 1975 
Q 1069 1734 1069 1313 
Q 1069 891 1326 650 
Q 1584 409 2034 409 
Q 2484 409 2743 651 
Q 3003 894 3003 1313 
Q 3003 1734 2745 1975 
Q 2488 2216 2034 2216 
z
M 1403 2484 
Q 997 2584 770 2862 
Q 544 3141 544 3541 
Q 544 4100 942 4425 
Q 1341 4750 2034 4750 
Q 2731 4750 3128 4425 
Q 3525 4100 3525 3541 
Q 3525 3141 3298 2862 
Q 3072 2584 2669 2484 
Q 3125 2378 3379 2068 
Q 3634 1759 3634 1313 
Q 3634 634 3220 271 
Q 2806 -91 2034 -91 
Q 1263 -91 848 271 
Q 434 634 434 1313 
Q 434 1759 690 2068 
Q 947 2378 1403 2484 
z
M 1172 3481 
Q 1172 3119 1398 2916 
Q 1625 2713 2034 2713 
Q 2441 2713 2670 2916 
Q 2900 3119 2900 3481 
Q 2900 3844 2670 4047 
Q 2441 4250 2034 4250 
Q 1625 4250 1398 4047 
Q 1172 3844 1172 3481 
z
" transform="scale(0.015625)"/>
       </defs>
       <use xlink:href="#DejaVuSans-62"/>
       <use xlink:href="#DejaVuSans-72" x="63.476562"/>
       <use xlink:href="#DejaVuSans-65" x="102.339844"/>
       <use xlink:href="#DejaVuSans-73" x="163.863281"/>
       <use xlink:href="#DejaVuSans-6c" x="215.962891"/>
       <use xlink:href="#DejaVuSans-6f" x="243.746094"/>
       <use xlink:href="#DejaVuSans-77" x="304.927734"/>
       <use xlink:href="#DejaVuSans-20" x="386.714844"/>
       <use xlink:href="#DejaVuSans-3c" x="418.501953"/>
       <use xlink:href="#DejaVuSans-20" x="502.291016"/>
       <use xlink:href="#DejaVuSans-30" x="534.078125"/>
       <use xlink:href="#DejaVuSans-2e" x="597.701172"/>
       <use xlink:href="#DejaVuSans-38" x="629.488281"/>
      </g>
     </g>
    </g>
    <g id="ytick_2">
     <g id="text_8">
      <!-- 0.8 &lt; breslow &lt; 1 -->
      <g transform="translate(7.2 198.926054)scale(0.16 -0.16)">
       <use xlink:href="#DejaVuSans-30"/>
       <use xlink:href="#DejaVuSans-2e" x="63.623047"/>
       <use xlink:href="#DejaVuSans-38" x="95.410156"/>
       <use xlink:href="#DejaVuSans-20" x="159.033203"/>
       <use xlink:href="#DejaVuSans-3c" x="190.820312"/>
       <use xlink:href="#DejaVuSans-20" x="274.609375"/>
       <use xlink:href="#DejaVuSans-62" x="306.396484"/>
       <use xlink:href="#DejaVuSans-72" x="369.873047"/>
       <use xlink:href="#DejaVuSans-65" x="408.736328"/>
       <use xlink:href="#DejaVuSans-73" x="470.259766"/>
       <use xlink:href="#DejaVuSans-6c" x="522.359375"/>
       <use xlink:href="#DejaVuSans-6f" x="550.142578"/>
       <use xlink:href="#DejaVuSans-77" x="611.324219"/>
       <use xlink:href="#DejaVuSans-20" x="693.111328"/>
       <use xlink:href="#DejaVuSans-3c" x="724.898438"/>
       <use xlink:href="#DejaVuSans-20" x="808.6875"/>
       <use xlink:href="#DejaVuSans-31" x="840.474609"/>
      </g>
     </g>
    </g>
    <g id="ytick_3">
     <g id="text_9">
      <!-- 2 &lt; breslow &lt; 3 -->
      <g transform="translate(22.465 146.33475)scale(0.16 -0.16)">
       <use xlink:href="#DejaVuSans-32"/>
       <use xlink:href="#DejaVuSans-20" x="63.623047"/>
       <use xlink:href="#DejaVuSans-3c" x="95.410156"/>
       <use xlink:href="#DejaVuSans-20" x="179.199219"/>
       <use xlink:href="#DejaVuSans-62" x="210.986328"/>
       <use xlink:href="#DejaVuSans-72" x="274.462891"/>
       <use xlink:href="#DejaVuSans-65" x="313.326172"/>
       <use xlink:href="#DejaVuSans-73" x="374.849609"/>
       <use xlink:href="#DejaVuSans-6c" x="426.949219"/>
       <use xlink:href="#DejaVuSans-6f" x="454.732422"/>
       <use xlink:href="#DejaVuSans-77" x="515.914062"/>
       <use xlink:href="#DejaVuSans-20" x="597.701172"/>
       <use xlink:href="#DejaVuSans-3c" x="629.488281"/>
       <use xlink:href="#DejaVuSans-20" x="713.277344"/>
       <use xlink:href="#DejaVuSans-33" x="745.064453"/>
      </g>
     </g>
    </g>
    <g id="ytick_4">
     <g id="text_10">
      <!-- 3 &lt; breslow &lt; 4 -->
      <g transform="translate(22.465 93.743446)scale(0.16 -0.16)">
       <use xlink:href="#DejaVuSans-33"/>
       <use xlink:href="#DejaVuSans-20" x="63.623047"/>
       <use xlink:href="#DejaVuSans-3c" x="95.410156"/>
       <use xlink:href="#DejaVuSans-20" x="179.199219"/>
       <use xlink:href="#DejaVuSans-62" x="210.986328"/>
       <use xlink:href="#DejaVuSans-72" x="274.462891"/>
       <use xlink:href="#DejaVuSans-65" x="313.326172"/>
       <use xlink:href="#DejaVuSans-73" x="374.849609"/>
       <use xlink:href="#DejaVuSans-6c" x="426.949219"/>
       <use xlink:href="#DejaVuSans-6f" x="454.732422"/>
       <use xlink:href="#DejaVuSans-77" x="515.914062"/>
       <use xlink:href="#DejaVuSans-20" x="597.701172"/>
       <use xlink:href="#DejaVuSans-3c" x="629.488281"/>
       <use xlink:href="#DejaVuSans-20" x="713.277344"/>
       <use xlink:href="#DejaVuSans-34" x="745.064453"/>
      </g>
     </g>
    </g>
    <g id="ytick_5">
     <g id="text_11">
      <!-- breslow &gt;= 4 -->
      <g transform="translate(42.815 41.152141)scale(0.16 -0.16)">
       <defs>
        <path id="DejaVuSans-3e" d="M 678 3150 
L 678 3719 
L 4684 2266 
L 4684 1747 
L 678 294 
L 678 863 
L 3897 2003 
L 678 3150 
z
" transform="scale(0.015625)"/>
        <path id="DejaVuSans-3d" d="M 678 2906 
L 4684 2906 
L 4684 2381 
L 678 2381 
L 678 2906 
z
M 678 1631 
L 4684 1631 
L 4684 1100 
L 678 1100 
L 678 1631 
z
" transform="scale(0.015625)"/>
       </defs>
       <use xlink:href="#DejaVuSans-62"/>
       <use xlink:href="#DejaVuSans-72" x="63.476562"/>
       <use xlink:href="#DejaVuSans-65" x="102.339844"/>
       <use xlink:href="#DejaVuSans-73" x="163.863281"/>
       <use xlink:href="#DejaVuSans-6c" x="215.962891"/>
       <use xlink:href="#DejaVuSans-6f" x="243.746094"/>
       <use xlink:href="#DejaVuSans-77" x="304.927734"/>
       <use xlink:href="#DejaVuSans-20" x="386.714844"/>
       <use xlink:href="#DejaVuSans-3e" x="418.501953"/>
       <use xlink:href="#DejaVuSans-3d" x="502.291016"/>
       <use xlink:href="#DejaVuSans-20" x="586.080078"/>
       <use xlink:href="#DejaVuSans-34" x="617.867188"/>
      </g>
     </g>
    </g>
   </g>
   <g id="patch_3">
    <path d="M 158.855 261.216 
L 498.969286 261.216 
L 498.969286 245.438609 
L 158.855 245.438609 
z
" clip-path="url(#p0ea83892d3)" style="fill: #2f586e"/>
   </g>
   <g id="patch_4">
    <path d="M 158.855 208.624696 
L 214.694659 208.624696 
L 214.694659 192.847304 
L 158.855 192.847304 
z
" clip-path="url(#p0ea83892d3)" style="fill: #2f586e"/>
   </g>
   <g id="patch_5">
    <path d="M 158.855 156.033391 
L 327.008518 156.033391 
L 327.008518 140.256 
L 158.855 140.256 
z
" clip-path="url(#p0ea83892d3)" style="fill: #2f586e"/>
   </g>
   <g id="patch_6">
    <path d="M 158.855 103.442087 
L 263.55436 103.442087 
L 263.55436 87.664696 
L 158.855 87.664696 
z
" clip-path="url(#p0ea83892d3)" style="fill: #2f586e"/>
   </g>
   <g id="patch_7">
    <path d="M 158.855 50.850783 
L 206.445618 50.850783 
L 206.445618 35.073391 
L 158.855 35.073391 
z
" clip-path="url(#p0ea83892d3)" style="fill: #2f586e"/>
   </g>
   <g id="patch_8">
    <path d="M 158.855 245.438609 
L 167.738582 245.438609 
L 167.738582 229.661217 
L 158.855 229.661217 
z
" clip-path="url(#p0ea83892d3)" style="fill: #7f7f7f"/>
   </g>
   <g id="patch_9">
    <path d="M 158.855 192.847304 
L 163.296791 192.847304 
L 163.296791 177.069913 
L 158.855 177.069913 
z
" clip-path="url(#p0ea83892d3)" style="fill: #7f7f7f"/>
   </g>
   <g id="patch_10">
    <path d="M 158.855 140.256 
L 187.409371 140.256 
L 187.409371 124.478609 
L 158.855 124.478609 
z
" clip-path="url(#p0ea83892d3)" style="fill: #7f7f7f"/>
   </g>
   <g id="patch_11">
    <path d="M 158.855 87.664696 
L 193.120245 87.664696 
L 193.120245 71.887304 
L 158.855 71.887304 
z
" clip-path="url(#p0ea83892d3)" style="fill: #7f7f7f"/>
   </g>
   <g id="patch_12">
    <path d="M 158.855 35.073391 
L 217.867367 35.073391 
L 217.867367 19.296 
L 158.855 19.296 
z
" clip-path="url(#p0ea83892d3)" style="fill: #7f7f7f"/>
   </g>
   <g id="patch_13">
    <path d="M 158.855 273.312 
L 158.855 7.2 
" style="fill: none; stroke: #000000; stroke-width: 0.8; stroke-linejoin: miter; stroke-linecap: square"/>
   </g>
   <g id="text_12">
    <!-- 536 -->
    <g transform="translate(500.469286 257.742304)scale(0.16 -0.16)">
     <defs>
      <path id="DejaVuSans-36" d="M 2113 2584 
Q 1688 2584 1439 2293 
Q 1191 2003 1191 1497 
Q 1191 994 1439 701 
Q 1688 409 2113 409 
Q 2538 409 2786 701 
Q 3034 994 3034 1497 
Q 3034 2003 2786 2293 
Q 2538 2584 2113 2584 
z
M 3366 4563 
L 3366 3988 
Q 3128 4100 2886 4159 
Q 2644 4219 2406 4219 
Q 1781 4219 1451 3797 
Q 1122 3375 1075 2522 
Q 1259 2794 1537 2939 
Q 1816 3084 2150 3084 
Q 2853 3084 3261 2657 
Q 3669 2231 3669 1497 
Q 3669 778 3244 343 
Q 2819 -91 2113 -91 
Q 1303 -91 875 529 
Q 447 1150 447 2328 
Q 447 3434 972 4092 
Q 1497 4750 2381 4750 
Q 2619 4750 2861 4703 
Q 3103 4656 3366 4563 
z
" transform="scale(0.015625)"/>
     </defs>
     <use xlink:href="#DejaVuSans-35"/>
     <use xlink:href="#DejaVuSans-33" x="63.623047"/>
     <use xlink:href="#DejaVuSans-36" x="127.246094"/>
    </g>
   </g>
   <g id="text_13">
    <!-- 88 -->
    <g transform="translate(216.194659 205.151)scale(0.16 -0.16)">
     <use xlink:href="#DejaVuSans-38"/>
     <use xlink:href="#DejaVuSans-38" x="63.623047"/>
    </g>
   </g>
   <g id="text_14">
    <!-- 265 -->
    <g transform="translate(328.508518 152.559696)scale(0.16 -0.16)">
     <use xlink:href="#DejaVuSans-32"/>
     <use xlink:href="#DejaVuSans-36" x="63.623047"/>
     <use xlink:href="#DejaVuSans-35" x="127.246094"/>
    </g>
   </g>
   <g id="text_15">
    <!-- 165 -->
    <g transform="translate(265.05436 99.968391)scale(0.16 -0.16)">
     <use xlink:href="#DejaVuSans-31"/>
     <use xlink:href="#DejaVuSans-36" x="63.623047"/>
     <use xlink:href="#DejaVuSans-35" x="127.246094"/>
    </g>
   </g>
   <g id="text_16">
    <!-- 75 -->
    <g transform="translate(207.945618 47.377087)scale(0.16 -0.16)">
     <defs>
      <path id="DejaVuSans-37" d="M 525 4666 
L 3525 4666 
L 3525 4397 
L 1831 0 
L 1172 0 
L 2766 4134 
L 525 4134 
L 525 4666 
z
" transform="scale(0.015625)"/>
     </defs>
     <use xlink:href="#DejaVuSans-37"/>
     <use xlink:href="#DejaVuSans-35" x="63.623047"/>
    </g>
   </g>
   <g id="text_17">
    <!-- 14 -->
    <g transform="translate(169.238582 241.964913)scale(0.16 -0.16)">
     <use xlink:href="#DejaVuSans-31"/>
     <use xlink:href="#DejaVuSans-34" x="63.623047"/>
    </g>
   </g>
   <g id="text_18">
    <!-- 7 -->
    <g transform="translate(164.796791 189.373609)scale(0.16 -0.16)">
     <use xlink:href="#DejaVuSans-37"/>
    </g>
   </g>
   <g id="text_19">
    <!-- 45 -->
    <g transform="translate(188.909371 136.782304)scale(0.16 -0.16)">
     <use xlink:href="#DejaVuSans-34"/>
     <use xlink:href="#DejaVuSans-35" x="63.623047"/>
    </g>
   </g>
   <g id="text_20">
    <!-- 54 -->
    <g transform="translate(194.620245 84.191)scale(0.16 -0.16)">
     <use xlink:href="#DejaVuSans-35"/>
     <use xlink:href="#DejaVuSans-34" x="63.623047"/>
    </g>
   </g>
   <g id="text_21">
    <!-- 93 -->
    <g transform="translate(219.367367 31.599696)scale(0.16 -0.16)">
     <defs>
      <path id="DejaVuSans-39" d="M 703 97 
L 703 672 
Q 941 559 1184 500 
Q 1428 441 1663 441 
Q 2288 441 2617 861 
Q 2947 1281 2994 2138 
Q 2813 1869 2534 1725 
Q 2256 1581 1919 1581 
Q 1219 1581 811 2004 
Q 403 2428 403 3163 
Q 403 3881 828 4315 
Q 1253 4750 1959 4750 
Q 2769 4750 3195 4129 
Q 3622 3509 3622 2328 
Q 3622 1225 3098 567 
Q 2575 -91 1691 -91 
Q 1453 -91 1209 -44 
Q 966 3 703 97 
z
M 1959 2075 
Q 2384 2075 2632 2365 
Q 2881 2656 2881 3163 
Q 2881 3666 2632 3958 
Q 2384 4250 1959 4250 
Q 1534 4250 1286 3958 
Q 1038 3666 1038 3163 
Q 1038 2656 1286 2365 
Q 1534 2075 1959 2075 
z
" transform="scale(0.015625)"/>
     </defs>
     <use xlink:href="#DejaVuSans-39"/>
     <use xlink:href="#DejaVuSans-33" x="63.623047"/>
    </g>
   </g>
   <g id="legend_1">
    <g id="patch_14">
     <path d="M 363.9 66.97 
L 504.775 66.97 
Q 507.975 66.97 507.975 63.77 
L 507.975 18.4 
Q 507.975 15.2 504.775 15.2 
L 363.9 15.2 
Q 360.7 15.2 360.7 18.4 
L 360.7 63.77 
Q 360.7 66.97 363.9 66.97 
z
" style="fill: #ffffff; opacity: 0.8; stroke: #cccccc; stroke-linejoin: miter"/>
    </g>
    <g id="patch_15">
     <path d="M 367.1 33.7575 
L 399.1 33.7575 
L 399.1 22.5575 
L 367.1 22.5575 
z
" style="fill: #2f586e"/>
    </g>
    <g id="text_22">
     <!-- No Relapse -->
     <g transform="translate(411.9 33.7575)scale(0.16 -0.16)">
      <defs>
       <path id="DejaVuSans-4e" d="M 628 4666 
L 1478 4666 
L 3547 763 
L 3547 4666 
L 4159 4666 
L 4159 0 
L 3309 0 
L 1241 3903 
L 1241 0 
L 628 0 
L 628 4666 
z
" transform="scale(0.015625)"/>
       <path id="DejaVuSans-52" d="M 2841 2188 
Q 3044 2119 3236 1894 
Q 3428 1669 3622 1275 
L 4263 0 
L 3584 0 
L 2988 1197 
Q 2756 1666 2539 1819 
Q 2322 1972 1947 1972 
L 1259 1972 
L 1259 0 
L 628 0 
L 628 4666 
L 2053 4666 
Q 2853 4666 3247 4331 
Q 3641 3997 3641 3322 
Q 3641 2881 3436 2590 
Q 3231 2300 2841 2188 
z
M 1259 4147 
L 1259 2491 
L 2053 2491 
Q 2509 2491 2742 2702 
Q 2975 2913 2975 3322 
Q 2975 3731 2742 3939 
Q 2509 4147 2053 4147 
L 1259 4147 
z
" transform="scale(0.015625)"/>
       <path id="DejaVuSans-61" d="M 2194 1759 
Q 1497 1759 1228 1600 
Q 959 1441 959 1056 
Q 959 750 1161 570 
Q 1363 391 1709 391 
Q 2188 391 2477 730 
Q 2766 1069 2766 1631 
L 2766 1759 
L 2194 1759 
z
M 3341 1997 
L 3341 0 
L 2766 0 
L 2766 531 
Q 2569 213 2275 61 
Q 1981 -91 1556 -91 
Q 1019 -91 701 211 
Q 384 513 384 1019 
Q 384 1609 779 1909 
Q 1175 2209 1959 2209 
L 2766 2209 
L 2766 2266 
Q 2766 2663 2505 2880 
Q 2244 3097 1772 3097 
Q 1472 3097 1187 3025 
Q 903 2953 641 2809 
L 641 3341 
Q 956 3463 1253 3523 
Q 1550 3584 1831 3584 
Q 2591 3584 2966 3190 
Q 3341 2797 3341 1997 
z
" transform="scale(0.015625)"/>
       <path id="DejaVuSans-70" d="M 1159 525 
L 1159 -1331 
L 581 -1331 
L 581 3500 
L 1159 3500 
L 1159 2969 
Q 1341 3281 1617 3432 
Q 1894 3584 2278 3584 
Q 2916 3584 3314 3078 
Q 3713 2572 3713 1747 
Q 3713 922 3314 415 
Q 2916 -91 2278 -91 
Q 1894 -91 1617 61 
Q 1341 213 1159 525 
z
M 3116 1747 
Q 3116 2381 2855 2742 
Q 2594 3103 2138 3103 
Q 1681 3103 1420 2742 
Q 1159 2381 1159 1747 
Q 1159 1113 1420 752 
Q 1681 391 2138 391 
Q 2594 391 2855 752 
Q 3116 1113 3116 1747 
z
" transform="scale(0.015625)"/>
      </defs>
      <use xlink:href="#DejaVuSans-4e"/>
      <use xlink:href="#DejaVuSans-6f" x="74.804688"/>
      <use xlink:href="#DejaVuSans-20" x="135.986328"/>
      <use xlink:href="#DejaVuSans-52" x="167.773438"/>
      <use xlink:href="#DejaVuSans-65" x="232.755859"/>
      <use xlink:href="#DejaVuSans-6c" x="294.279297"/>
      <use xlink:href="#DejaVuSans-61" x="322.0625"/>
      <use xlink:href="#DejaVuSans-70" x="383.341797"/>
      <use xlink:href="#DejaVuSans-73" x="446.818359"/>
      <use xlink:href="#DejaVuSans-65" x="498.917969"/>
     </g>
    </g>
    <g id="patch_16">
     <path d="M 367.1 57.2425 
L 399.1 57.2425 
L 399.1 46.0425 
L 367.1 46.0425 
z
" style="fill: #7f7f7f"/>
    </g>
    <g id="text_23">
     <!-- Relapse -->
     <g transform="translate(411.9 57.2425)scale(0.16 -0.16)">
      <use xlink:href="#DejaVuSans-52"/>
      <use xlink:href="#DejaVuSans-65" x="64.982422"/>
      <use xlink:href="#DejaVuSans-6c" x="126.505859"/>
      <use xlink:href="#DejaVuSans-61" x="154.289062"/>
      <use xlink:href="#DejaVuSans-70" x="215.568359"/>
      <use xlink:href="#DejaVuSans-73" x="279.044922"/>
      <use xlink:href="#DejaVuSans-65" x="331.144531"/>
     </g>
    </g>
   </g>
  </g>
 </g>
 <defs>
  <clipPath id="p0ea83892d3">
   <rect x="158.855" y="7.2" width="357.12" height="266.112"/>
  </clipPath>
 </defs>
</svg>
