<?xml version="1.0" encoding="UTF-8" standalone="no"?>
<!-- Created with Inkscape (http://www.inkscape.org/) -->

<svg
   width="65.087585mm"
   height="81.628845mm"
   viewBox="0 0 65.087585 81.628845"
   version="1.1"
   id="svg5"
   xml:space="preserve"
   xmlns:inkscape="http://www.inkscape.org/namespaces/inkscape"
   xmlns:sodipodi="http://sodipodi.sourceforge.net/DTD/sodipodi-0.dtd"
   xmlns="http://www.w3.org/2000/svg"
   xmlns:svg="http://www.w3.org/2000/svg"><sodipodi:namedview
     id="namedview7"
     pagecolor="#ffffff"
     bordercolor="#000000"
     borderopacity="0.25"
     inkscape:showpageshadow="2"
     inkscape:pageopacity="0.0"
     inkscape:pagecheckerboard="0"
     inkscape:deskcolor="#d1d1d1"
     inkscape:document-units="mm"
     showgrid="false" /><defs
     id="defs2"><clipPath
       clipPathUnits="userSpaceOnUse"
       id="clipPath39"><path
         d="M 0,0 H 2479.1665 V 3503.1702 H 0 Z"
         clip-rule="evenodd"
         id="path37" /></clipPath></defs><g
     id="g33"
     transform="matrix(0.08466666,0,0,0.08466666,-54.25022,-15.210345)"><g
       id="g35"
       clip-path="url(#clipPath39)"><g
         id="g41"
         transform="matrix(2.9941626,0,0,2.9941626,1.4970813,1.4970813)"><path
           d="m 340,110 v 20 -20 13.63"
           style="fill:none;stroke:#000000;stroke-width:1;stroke-linecap:butt;stroke-linejoin:miter;stroke-miterlimit:10;stroke-dasharray:none;stroke-opacity:1"
           id="path43" /><path
           d="m 340,128.88 -3.5,-7 3.5,1.75 3.5,-1.75 z"
           style="fill:#000000;fill-opacity:1;fill-rule:nonzero;stroke:none"
           id="path45" /><path
           d="m 340,128.88 -3.5,-7 3.5,1.75 3.5,-1.75 z"
           style="fill:none;stroke:#000000;stroke-width:1;stroke-linecap:butt;stroke-linejoin:miter;stroke-miterlimit:10;stroke-dasharray:none;stroke-opacity:1"
           id="path47" /><path
           d="m 307.5,60 h 65 c 0.49246,0 0.98016,0.04803 1.46317,0.144108 0.483,0.09607 0.95196,0.238334 1.40692,0.426788 0.45495,0.188454 0.88717,0.41948 1.29666,0.693077 0.40945,0.273594 0.7883,0.584503 1.13653,0.932724 0.34824,0.348217 0.65912,0.727059 0.93271,1.136521 0.27359,0.409462 0.50461,0.841678 0.69306,1.29665 0.18844,0.454971 0.33072,0.923957 0.42682,1.406951 0.0961,0.482995 0.1441,0.970726 0.14413,1.463181 v 35 c -3e-5,0.49246 -0.0481,0.98018 -0.14413,1.46317 -0.0961,0.48299 -0.23838,0.95197 -0.42682,1.40694 -0.18845,0.45496 -0.41947,0.88718 -0.69306,1.29665 -0.27359,0.40947 -0.58447,0.78831 -0.93271,1.13653 -0.34823,0.34822 -0.72708,0.65912 -1.13653,0.93272 -0.40949,0.2736 -0.84171,0.50462 -1.29666,0.69308 -0.45496,0.18845 -0.92392,0.33071 -1.40692,0.42678 -0.48301,0.0961 -0.97071,0.14412 -1.46317,0.14413 h -65 c -0.49246,-1e-5 -0.98019,-0.0481 -1.46323,-0.14413 -0.483,-0.0961 -0.95196,-0.23834 -1.40692,-0.42679 -0.45495,-0.18846 -0.88717,-0.41947 -1.29666,-0.69307 -0.40945,-0.2736 -0.7883,-0.5845 -1.1365,-0.93272 -0.34824,-0.34822 -0.65915,-0.72706 -0.93277,-1.13653 -0.27359,-0.40947 -0.50461,-0.84169 -0.69306,-1.29665 -0.18844,-0.45497 -0.33072,-0.92395 -0.42679,-1.40694 C 300.048,103.48018 299.99997,102.99246 300,102.5 v -35 c -3e-5,-0.492455 0.048,-0.980186 0.14407,-1.463181 0.0961,-0.482994 0.23835,-0.95198 0.42679,-1.406951 0.18845,-0.454972 0.4195,-0.887188 0.69309,-1.29665 0.27359,-0.409462 0.5845,-0.788304 0.93274,-1.136521 0.3482,-0.348221 0.72705,-0.65913 1.1365,-0.932724 0.40949,-0.273597 0.84171,-0.504623 1.29666,-0.693077 0.45496,-0.188454 0.92392,-0.330715 1.40692,-0.426788 C 306.51981,60.048035 307.00754,60 307.5,60 Z"
           style="fill:#c2d0dc;fill-opacity:1;fill-rule:nonzero;stroke:none"
           id="path49" /><path
           d="m 307.5,60 h 65 c 0.49246,0 0.98016,0.04803 1.46317,0.144108 0.483,0.09607 0.95196,0.238334 1.40692,0.426788 0.45495,0.188454 0.88717,0.41948 1.29666,0.693077 0.40945,0.273594 0.7883,0.584503 1.13653,0.932724 0.34824,0.348217 0.65912,0.727059 0.93271,1.136521 0.27359,0.409462 0.50461,0.841678 0.69306,1.29665 0.18844,0.454971 0.33072,0.923957 0.42682,1.406951 0.0961,0.482995 0.1441,0.970726 0.14413,1.463181 v 35 c -3e-5,0.49246 -0.0481,0.98018 -0.14413,1.46317 -0.0961,0.48299 -0.23838,0.95197 -0.42682,1.40694 -0.18845,0.45496 -0.41947,0.88718 -0.69306,1.29665 -0.27359,0.40947 -0.58447,0.78831 -0.93271,1.13653 -0.34823,0.34822 -0.72708,0.65912 -1.13653,0.93272 -0.40949,0.2736 -0.84171,0.50462 -1.29666,0.69308 -0.45496,0.18845 -0.92392,0.33071 -1.40692,0.42678 -0.48301,0.0961 -0.97071,0.14412 -1.46317,0.14413 h -65 c -0.49246,-1e-5 -0.98019,-0.0481 -1.46323,-0.14413 -0.483,-0.0961 -0.95196,-0.23834 -1.40692,-0.42679 -0.45495,-0.18846 -0.88717,-0.41947 -1.29666,-0.69307 -0.40945,-0.2736 -0.7883,-0.5845 -1.1365,-0.93272 -0.34824,-0.34822 -0.65915,-0.72706 -0.93277,-1.13653 -0.27359,-0.40947 -0.50461,-0.84169 -0.69306,-1.29665 -0.18844,-0.45497 -0.33072,-0.92395 -0.42679,-1.40694 C 300.048,103.48018 299.99997,102.99246 300,102.5 v -35 c -3e-5,-0.492455 0.048,-0.980186 0.14407,-1.463181 0.0961,-0.482994 0.23835,-0.95198 0.42679,-1.406951 0.18845,-0.454972 0.4195,-0.887188 0.69309,-1.29665 0.27359,-0.409462 0.5845,-0.788304 0.93274,-1.136521 0.3482,-0.348221 0.72705,-0.65913 1.1365,-0.932724 0.40949,-0.273597 0.84171,-0.504623 1.29666,-0.693077 0.45496,-0.188454 0.92392,-0.330715 1.40692,-0.426788 C 306.51981,60.048035 307.00754,60 307.5,60 Z"
           style="fill:none;stroke:#2f586e;stroke-width:1;stroke-linecap:butt;stroke-linejoin:miter;stroke-miterlimit:10;stroke-dasharray:none;stroke-opacity:1"
           id="path51" /></g><g
         id="g53"
         transform="scale(2.9941626)"><text
           xml:space="preserve"
           transform="translate(328.65625,89)"
           style="font-variant:normal;font-weight:normal;font-size:12px;font-family:Arial;-inkscape-font-specification:ArialMT;writing-mode:lr-tb;fill:#000000;fill-opacity:1;fill-rule:nonzero;stroke:none"
           id="text57"><tspan
             x="0 11.326172 19.330078"
             y="0"
             sodipodi:role="line"
             id="tspan55">WSI</tspan></text></g><g
         id="g59"
         transform="matrix(2.9941626,0,0,2.9941626,1.4970813,1.4970813)"><path
           d="m 340,180 v 20 -20 13.63"
           style="fill:none;stroke:#000000;stroke-width:1;stroke-linecap:butt;stroke-linejoin:miter;stroke-miterlimit:10;stroke-dasharray:none;stroke-opacity:1"
           id="path61" /><path
           d="m 340,198.88 -3.5,-7 3.5,1.75 3.5,-1.75 z"
           style="fill:#000000;fill-opacity:1;fill-rule:nonzero;stroke:none"
           id="path63" /><path
           d="m 340,198.88 -3.5,-7 3.5,1.75 3.5,-1.75 z"
           style="fill:none;stroke:#000000;stroke-width:1;stroke-linecap:butt;stroke-linejoin:miter;stroke-miterlimit:10;stroke-dasharray:none;stroke-opacity:1"
           id="path65" /><path
           d="m 307.5,130 h 65 c 0.49246,0 0.98016,0.048 1.46317,0.1441 0.483,0.0961 0.95196,0.23835 1.40692,0.42679 0.45495,0.18846 0.88717,0.41948 1.29666,0.69307 0.40945,0.27361 0.7883,0.58452 1.13653,0.93274 0.34824,0.34821 0.65912,0.72705 0.93271,1.13652 0.27359,0.40946 0.50461,0.84168 0.69306,1.29665 0.18844,0.45497 0.33072,0.92395 0.42682,1.40695 0.0961,0.483 0.1441,0.97073 0.14413,1.46318 v 35 c -3e-5,0.49245 -0.0481,0.98018 -0.14413,1.46317 -0.0961,0.48298 -0.23838,0.95196 -0.42682,1.40693 -0.18845,0.45497 -0.41947,0.88719 -0.69306,1.29666 -0.27359,0.40947 -0.58447,0.78832 -0.93271,1.13654 -0.34823,0.34822 -0.72708,0.65913 -1.13653,0.93271 -0.40949,0.2736 -0.84171,0.50462 -1.29666,0.69308 -0.45496,0.18846 -0.92392,0.33072 -1.40692,0.42679 C 373.48016,179.95197 372.99246,180 372.5,180 h -65 c -0.49246,0 -0.98019,-0.048 -1.46323,-0.14412 -0.483,-0.0961 -0.95196,-0.23833 -1.40692,-0.42679 -0.45495,-0.18846 -0.88717,-0.41948 -1.29666,-0.69308 -0.40945,-0.27358 -0.7883,-0.58449 -1.1365,-0.93271 -0.34824,-0.34822 -0.65915,-0.72707 -0.93277,-1.13654 -0.27359,-0.40947 -0.50461,-0.84169 -0.69306,-1.29666 -0.18844,-0.45497 -0.33072,-0.92395 -0.42679,-1.40693 C 300.048,173.48018 299.99997,172.99245 300,172.5 v -35 c -3e-5,-0.49245 0.048,-0.98018 0.14407,-1.46318 0.0961,-0.483 0.23835,-0.95198 0.42679,-1.40695 0.18845,-0.45497 0.4195,-0.88719 0.69309,-1.29665 0.27359,-0.40947 0.5845,-0.78831 0.93274,-1.13652 0.3482,-0.34822 0.72705,-0.65913 1.1365,-0.93274 0.40949,-0.27359 0.84171,-0.50461 1.29666,-0.69307 0.45496,-0.18844 0.92392,-0.3307 1.40692,-0.42679 C 306.51981,130.04803 307.00754,130 307.5,130 Z"
           style="fill:#c2d0dc;fill-opacity:1;fill-rule:nonzero;stroke:none"
           id="path67" /><path
           d="m 307.5,130 h 65 c 0.49246,0 0.98016,0.048 1.46317,0.1441 0.483,0.0961 0.95196,0.23835 1.40692,0.42679 0.45495,0.18846 0.88717,0.41948 1.29666,0.69307 0.40945,0.27361 0.7883,0.58452 1.13653,0.93274 0.34824,0.34821 0.65912,0.72705 0.93271,1.13652 0.27359,0.40946 0.50461,0.84168 0.69306,1.29665 0.18844,0.45497 0.33072,0.92395 0.42682,1.40695 0.0961,0.483 0.1441,0.97073 0.14413,1.46318 v 35 c -3e-5,0.49245 -0.0481,0.98018 -0.14413,1.46317 -0.0961,0.48298 -0.23838,0.95196 -0.42682,1.40693 -0.18845,0.45497 -0.41947,0.88719 -0.69306,1.29666 -0.27359,0.40947 -0.58447,0.78832 -0.93271,1.13654 -0.34823,0.34822 -0.72708,0.65913 -1.13653,0.93271 -0.40949,0.2736 -0.84171,0.50462 -1.29666,0.69308 -0.45496,0.18846 -0.92392,0.33072 -1.40692,0.42679 C 373.48016,179.95197 372.99246,180 372.5,180 h -65 c -0.49246,0 -0.98019,-0.048 -1.46323,-0.14412 -0.483,-0.0961 -0.95196,-0.23833 -1.40692,-0.42679 -0.45495,-0.18846 -0.88717,-0.41948 -1.29666,-0.69308 -0.40945,-0.27358 -0.7883,-0.58449 -1.1365,-0.93271 -0.34824,-0.34822 -0.65915,-0.72707 -0.93277,-1.13654 -0.27359,-0.40947 -0.50461,-0.84169 -0.69306,-1.29666 -0.18844,-0.45497 -0.33072,-0.92395 -0.42679,-1.40693 C 300.048,173.48018 299.99997,172.99245 300,172.5 v -35 c -3e-5,-0.49245 0.048,-0.98018 0.14407,-1.46318 0.0961,-0.483 0.23835,-0.95198 0.42679,-1.40695 0.18845,-0.45497 0.4195,-0.88719 0.69309,-1.29665 0.27359,-0.40947 0.5845,-0.78831 0.93274,-1.13652 0.3482,-0.34822 0.72705,-0.65913 1.1365,-0.93274 0.40949,-0.27359 0.84171,-0.50461 1.29666,-0.69307 0.45496,-0.18844 0.92392,-0.3307 1.40692,-0.42679 C 306.51981,130.04803 307.00754,130 307.5,130 Z"
           style="fill:none;stroke:#2f586e;stroke-width:1;stroke-linecap:butt;stroke-linejoin:miter;stroke-miterlimit:10;stroke-dasharray:none;stroke-opacity:1"
           id="path69" /></g><g
         id="g71"
         transform="scale(2.9941626)"><text
           xml:space="preserve"
           transform="translate(321.65625,152)"
           style="font-variant:normal;font-weight:normal;font-size:12px;font-family:Arial;-inkscape-font-specification:ArialMT;writing-mode:lr-tb;fill:#333333;fill-opacity:1;fill-rule:nonzero;stroke:none"
           id="text75"><tspan
             x="0 8.6660156 15.339844 21.339844 24.005859 30.005859"
             y="0"
             sodipodi:role="line"
             id="tspan73">Resize</tspan></text><text
           xml:space="preserve"
           transform="translate(305.96875,167)"
           style="font-variant:normal;font-weight:normal;font-size:12px;font-family:Arial;-inkscape-font-specification:ArialMT;writing-mode:lr-tb;fill:#333333;fill-opacity:1;fill-rule:nonzero;stroke:none"
           id="text79"><tspan
             x="0 3.9960938 10.669922 17.34375 24.017578 30.691406 34.025391 37.359375 44.033203 50.707031 57.380859 64.054688"
             y="0"
             sodipodi:role="line"
             id="tspan77">(1024, 1024)</tspan></text></g><g
         id="g81"
         transform="matrix(2.9941626,0,0,2.9941626,1.4970813,1.4970813)"><path
           d="m 275,225 h -26 v 58.63"
           style="fill:none;stroke:#000000;stroke-width:1;stroke-linecap:butt;stroke-linejoin:miter;stroke-miterlimit:10;stroke-dasharray:none;stroke-opacity:1"
           id="path83" /><path
           d="m 249,288.88 -3.5,-7 3.5,1.75 3.5,-1.75 z"
           style="fill:#000000;fill-opacity:1;fill-rule:nonzero;stroke:none"
           id="path85" /><path
           d="m 249,288.88 -3.5,-7 3.5,1.75 3.5,-1.75 z"
           style="fill:none;stroke:#000000;stroke-width:1;stroke-linecap:butt;stroke-linejoin:miter;stroke-miterlimit:10;stroke-dasharray:none;stroke-opacity:1"
           id="path87" /><path
           d="m 340,250 v 33.63"
           style="fill:none;stroke:#000000;stroke-width:1;stroke-linecap:butt;stroke-linejoin:miter;stroke-miterlimit:10;stroke-dasharray:none;stroke-opacity:1"
           id="path89" /><path
           d="m 340,288.88 -3.5,-7 3.5,1.75 3.5,-1.75 z"
           style="fill:#000000;fill-opacity:1;fill-rule:nonzero;stroke:none"
           id="path91" /><path
           d="m 340,288.88 -3.5,-7 3.5,1.75 3.5,-1.75 z"
           style="fill:none;stroke:#000000;stroke-width:1;stroke-linecap:butt;stroke-linejoin:miter;stroke-miterlimit:10;stroke-dasharray:none;stroke-opacity:1"
           id="path93" /><path
           d="m 405,225 h 22.20001 l -0.04,57.85001"
           style="fill:none;stroke:#000000;stroke-width:1;stroke-linecap:butt;stroke-linejoin:miter;stroke-miterlimit:10;stroke-dasharray:none;stroke-opacity:1"
           id="path95" /><path
           d="m 427.16,288.10001 -3.48999,-7 3.48999,1.75 3.51001,-1.75 z"
           style="fill:#000000;fill-opacity:1;fill-rule:nonzero;stroke:none"
           id="path97" /><path
           d="m 427.16,288.10001 -3.48999,-7 3.48999,1.75 3.51001,-1.75 z"
           style="fill:none;stroke:#000000;stroke-width:1;stroke-linecap:butt;stroke-linejoin:miter;stroke-miterlimit:10;stroke-dasharray:none;stroke-opacity:1"
           id="path99" /><path
           d="m 282.5,200 h 115 c 0.49246,0 0.98016,0.048 1.46317,0.1441 0.48294,0.0961 0.9519,0.23835 1.40689,0.42679 0.45498,0.18845 0.88717,0.41947 1.29663,0.69307 0.40948,0.27359 0.78836,0.5845 1.13659,0.93273 0.34821,0.34822 0.65909,0.72705 0.93268,1.1365 0.27362,0.40947 0.50467,0.84169 0.69312,1.29666 0.18844,0.45497 0.33072,0.92395 0.42679,1.40695 0.0961,0.48299 0.1441,0.97072 0.14413,1.4632 v 35 c -3e-5,0.49245 -0.0481,0.98018 -0.14413,1.46317 -0.0961,0.48297 -0.23835,0.95195 -0.42679,1.40692 -0.18845,0.45497 -0.4195,0.88717 -0.69309,1.29664 -0.27359,0.40947 -0.5845,0.78832 -0.93271,1.13654 -0.34823,0.3482 -0.72708,0.6591 -1.13653,0.93271 -0.40949,0.27357 -0.84171,0.50461 -1.29666,0.69307 -0.45499,0.18846 -0.92395,0.33073 -1.40696,0.42682 -0.48297,0.0961 -0.97067,0.14411 -1.46313,0.14413 h -115 c -0.49246,-2e-5 -0.98019,-0.048 -1.4632,-0.14413 -0.483,-0.0961 -0.95196,-0.23836 -1.40695,-0.42682 -0.45498,-0.18846 -0.8872,-0.4195 -1.29666,-0.69307 -0.40945,-0.27361 -0.7883,-0.58451 -1.1365,-0.93271 -0.34824,-0.34822 -0.65912,-0.72707 -0.93271,-1.13652 -0.27362,-0.40947 -0.50467,-0.84169 -0.69312,-1.29666 -0.18844,-0.45497 -0.33072,-0.92395 -0.42679,-1.40694 C 275.04803,243.48016 275,242.99245 275,242.5 v -35 c 0,-0.49248 0.048,-0.98021 0.14407,-1.4632 0.0961,-0.483 0.23835,-0.95198 0.42679,-1.40695 0.18845,-0.45497 0.4195,-0.88719 0.69312,-1.29666 0.27359,-0.40945 0.58447,-0.78828 0.93271,-1.1365 0.3482,-0.34823 0.72705,-0.65914 1.1365,-0.93273 0.40946,-0.2736 0.84168,-0.50462 1.29666,-0.69307 0.45499,-0.18844 0.92395,-0.3307 1.40695,-0.42679 C 281.51981,200.04803 282.00754,200 282.5,200 Z"
           style="fill:#c2d0dc;fill-opacity:1;fill-rule:nonzero;stroke:none"
           id="path101" /><path
           d="m 282.5,200 h 115 c 0.49246,0 0.98016,0.048 1.46317,0.1441 0.48294,0.0961 0.9519,0.23835 1.40689,0.42679 0.45498,0.18845 0.88717,0.41947 1.29663,0.69307 0.40948,0.27359 0.78836,0.5845 1.13659,0.93273 0.34821,0.34822 0.65909,0.72705 0.93268,1.1365 0.27362,0.40947 0.50467,0.84169 0.69312,1.29666 0.18844,0.45497 0.33072,0.92395 0.42679,1.40695 0.0961,0.48299 0.1441,0.97072 0.14413,1.4632 v 35 c -3e-5,0.49245 -0.0481,0.98018 -0.14413,1.46317 -0.0961,0.48297 -0.23835,0.95195 -0.42679,1.40692 -0.18845,0.45497 -0.4195,0.88717 -0.69309,1.29664 -0.27359,0.40947 -0.5845,0.78832 -0.93271,1.13654 -0.34823,0.3482 -0.72708,0.6591 -1.13653,0.93271 -0.40949,0.27357 -0.84171,0.50461 -1.29666,0.69307 -0.45499,0.18846 -0.92395,0.33073 -1.40696,0.42682 -0.48297,0.0961 -0.97067,0.14411 -1.46313,0.14413 h -115 c -0.49246,-2e-5 -0.98019,-0.048 -1.4632,-0.14413 -0.483,-0.0961 -0.95196,-0.23836 -1.40695,-0.42682 -0.45498,-0.18846 -0.8872,-0.4195 -1.29666,-0.69307 -0.40945,-0.27361 -0.7883,-0.58451 -1.1365,-0.93271 -0.34824,-0.34822 -0.65912,-0.72707 -0.93271,-1.13652 -0.27362,-0.40947 -0.50467,-0.84169 -0.69312,-1.29666 -0.18844,-0.45497 -0.33072,-0.92395 -0.42679,-1.40694 C 275.04803,243.48016 275,242.99245 275,242.5 v -35 c 0,-0.49248 0.048,-0.98021 0.14407,-1.4632 0.0961,-0.483 0.23835,-0.95198 0.42679,-1.40695 0.18845,-0.45497 0.4195,-0.88719 0.69312,-1.29666 0.27359,-0.40945 0.58447,-0.78828 0.93271,-1.1365 0.3482,-0.34823 0.72705,-0.65914 1.1365,-0.93273 0.40946,-0.2736 0.84168,-0.50462 1.29666,-0.69307 0.45499,-0.18844 0.92395,-0.3307 1.40695,-0.42679 C 281.51981,200.04803 282.00754,200 282.5,200 Z"
           style="fill:none;stroke:#2f586e;stroke-width:1;stroke-linecap:butt;stroke-linejoin:miter;stroke-miterlimit:10;stroke-dasharray:none;stroke-opacity:1"
           id="path103" /></g><g
         id="g105"
         transform="scale(2.9941626)"><text
           xml:space="preserve"
           transform="translate(311.3125,215)"
           style="font-variant:normal;font-weight:normal;font-size:12px;font-family:Arial;-inkscape-font-specification:ArialMT;writing-mode:lr-tb;fill:#000000;fill-opacity:1;fill-rule:nonzero;stroke:none"
           id="text109"><tspan
             x="0 8.6660156 15.339844 21.339844 30.005859 36.679688 40.013672 44.009766 50.683594"
             y="0"
             sodipodi:role="line"
             id="tspan107">ResNet-34</tspan></text><text
           xml:space="preserve"
           transform="translate(311.98438,229)"
           style="font-variant:normal;font-weight:normal;font-size:12px;font-family:Arial;-inkscape-font-specification:ArialMT;writing-mode:lr-tb;fill:#000000;fill-opacity:1;fill-rule:nonzero;stroke:none"
           id="text113"><tspan
             x="0 3.9960938 7.3300781 17.326172 24 30.673828 37.347656 46.013672 52.6875"
             y="0"
             sodipodi:role="line"
             id="tspan111">(ImageNet</tspan></text><text
           xml:space="preserve"
           transform="translate(310.3125,244)"
           style="font-variant:normal;font-weight:normal;font-size:12px;font-family:Arial;-inkscape-font-specification:ArialMT;writing-mode:lr-tb;fill:#000000;fill-opacity:1;fill-rule:nonzero;stroke:none"
           id="text117"><tspan
             x="0 8.0039062 12 18.673828 22.007812 26.003906 32.677734 35.34375 42.017578 48.691406 55.365234"
             y="0"
             sodipodi:role="line"
             id="tspan115">Pretrained)</tspan></text></g><g
         id="g119"
         transform="matrix(2.9941626,0,0,2.9941626,1.4970813,1.4970813)"><path
           d="m 220,340 h 58 c 0.39395,3e-5 0.78415,0.0385 1.17056,0.1153 0.38639,0.0768 0.76154,0.19064 1.12552,0.3414 0.36398,0.15078 0.70975,0.3356 1.03732,0.55447 0.32755,0.21887 0.63062,0.46759 0.90921,0.74618 0.27857,0.27857 0.52729,0.58164 0.74619,0.90918 0.21884,0.32758 0.40366,0.67334 0.55441,1.03733 0.15076,0.36398 0.26459,0.73916 0.34146,1.12558 0.0769,0.38638 0.1153,0.77658 0.11533,1.17056 v 28 c -3e-5,0.39395 -0.0385,0.78412 -0.11533,1.1705 -0.0769,0.38638 -0.1907,0.7616 -0.34146,1.12558 -0.15075,0.36398 -0.33557,0.70975 -0.55441,1.03736 -0.2189,0.32754 -0.46762,0.63058 -0.74619,0.90917 -0.27859,0.27857 -0.58166,0.52729 -0.90921,0.74619 -0.32757,0.21884 -0.67334,0.40366 -1.03732,0.55444 -0.36398,0.15076 -0.73913,0.26459 -1.12552,0.34146 -0.38641,0.0768 -0.77661,0.11527 -1.17056,0.1153 h -58 c -0.39397,-3e-5 -0.78416,-0.0385 -1.17056,-0.11533 -0.3864,-0.0769 -0.76158,-0.19067 -1.12557,-0.34143 -0.36398,-0.15078 -0.70976,-0.3356 -1.03732,-0.55444 -0.32756,-0.2189 -0.63062,-0.46762 -0.9092,-0.74619 -0.27857,-0.27859 -0.52731,-0.58163 -0.74618,-0.90917 -0.21887,-0.32761 -0.40369,-0.67338 -0.55446,-1.03736 -0.15077,-0.36398 -0.26459,-0.7392 -0.34143,-1.12558 C 214.03842,374.78412 213.99998,374.39395 214,374 v -28 c -2e-5,-0.39398 0.0384,-0.78418 0.11526,-1.17056 0.0769,-0.38642 0.19066,-0.7616 0.34142,-1.12558 0.15077,-0.36399 0.33559,-0.70975 0.55447,-1.03733 0.21889,-0.32754 0.46763,-0.63061 0.7462,-0.90918 0.27858,-0.27859 0.58164,-0.52731 0.9092,-0.74618 0.32756,-0.21887 0.67334,-0.40369 1.03732,-0.55447 0.36399,-0.15076 0.73917,-0.26456 1.12557,-0.3414 0.3864,-0.0768 0.77659,-0.11527 1.17056,-0.1153 z"
           style="fill:#c2d0dc;fill-opacity:1;fill-rule:nonzero;stroke:none"
           id="path121" /><path
           d="m 220,340 h 58 c 0.39395,3e-5 0.78415,0.0385 1.17056,0.1153 0.38639,0.0768 0.76154,0.19064 1.12552,0.3414 0.36398,0.15078 0.70975,0.3356 1.03732,0.55447 0.32755,0.21887 0.63062,0.46759 0.90921,0.74618 0.27857,0.27857 0.52729,0.58164 0.74619,0.90918 0.21884,0.32758 0.40366,0.67334 0.55441,1.03733 0.15076,0.36398 0.26459,0.73916 0.34146,1.12558 0.0769,0.38638 0.1153,0.77658 0.11533,1.17056 v 28 c -3e-5,0.39395 -0.0385,0.78412 -0.11533,1.1705 -0.0769,0.38638 -0.1907,0.7616 -0.34146,1.12558 -0.15075,0.36398 -0.33557,0.70975 -0.55441,1.03736 -0.2189,0.32754 -0.46762,0.63058 -0.74619,0.90917 -0.27859,0.27857 -0.58166,0.52729 -0.90921,0.74619 -0.32757,0.21884 -0.67334,0.40366 -1.03732,0.55444 -0.36398,0.15076 -0.73913,0.26459 -1.12552,0.34146 -0.38641,0.0768 -0.77661,0.11527 -1.17056,0.1153 h -58 c -0.39397,-3e-5 -0.78416,-0.0385 -1.17056,-0.11533 -0.3864,-0.0769 -0.76158,-0.19067 -1.12557,-0.34143 -0.36398,-0.15078 -0.70976,-0.3356 -1.03732,-0.55444 -0.32756,-0.2189 -0.63062,-0.46762 -0.9092,-0.74619 -0.27857,-0.27859 -0.52731,-0.58163 -0.74618,-0.90917 -0.21887,-0.32761 -0.40369,-0.67338 -0.55446,-1.03736 -0.15077,-0.36398 -0.26459,-0.7392 -0.34143,-1.12558 C 214.03842,374.78412 213.99998,374.39395 214,374 v -28 c -2e-5,-0.39398 0.0384,-0.78418 0.11526,-1.17056 0.0769,-0.38642 0.19066,-0.7616 0.34142,-1.12558 0.15077,-0.36399 0.33559,-0.70975 0.55447,-1.03733 0.21889,-0.32754 0.46763,-0.63061 0.7462,-0.90918 0.27858,-0.27859 0.58164,-0.52731 0.9092,-0.74618 0.32756,-0.21887 0.67334,-0.40369 1.03732,-0.55447 0.36399,-0.15076 0.73917,-0.26456 1.12557,-0.3414 0.3864,-0.0768 0.77659,-0.11527 1.17056,-0.1153 z"
           style="fill:none;stroke:#2f586e;stroke-width:1;stroke-linecap:butt;stroke-linejoin:miter;stroke-miterlimit:10;stroke-dasharray:none;stroke-opacity:1"
           id="path123" /></g><g
         id="g125"
         transform="scale(2.9941626)"><text
           xml:space="preserve"
           transform="translate(227.65625,364)"
           style="font-variant:normal;font-weight:normal;font-size:12px;font-family:Arial;-inkscape-font-specification:ArialMT;writing-mode:lr-tb;fill:#000000;fill-opacity:1;fill-rule:nonzero;stroke:none"
           id="text129"><tspan
             x="0 8.0039062 12 18.673828 24.673828 27.339844 34.013672"
             y="0"
             sodipodi:role="line"
             id="tspan127">Breslow</tspan></text></g><g
         id="g131"
         transform="matrix(2.9941626,0,0,2.9941626,1.4970813,1.4970813)"><path
           d="m 311,340 h 58 c 0.39395,3e-5 0.78415,0.0385 1.17056,0.1153 0.38636,0.0768 0.76154,0.19064 1.12552,0.3414 0.36398,0.15078 0.70975,0.3356 1.03736,0.55447 0.32754,0.21887 0.63058,0.46759 0.90917,0.74618 0.27854,0.27857 0.52726,0.58164 0.74616,0.90918 0.21887,0.32758 0.40369,0.67334 0.55444,1.03733 0.15076,0.36398 0.26459,0.73916 0.34146,1.12558 0.0769,0.38638 0.1153,0.77658 0.11533,1.17056 v 28 c -3e-5,0.39395 -0.0385,0.78412 -0.11533,1.1705 -0.0768,0.38638 -0.19064,0.7616 -0.3414,1.12558 -0.15078,0.36398 -0.33563,0.70975 -0.55447,1.03736 -0.2189,0.32754 -0.46765,0.63058 -0.74619,0.90917 -0.27859,0.27857 -0.58163,0.52729 -0.90917,0.74619 -0.32761,0.21884 -0.67338,0.40366 -1.03736,0.55444 -0.36398,0.15076 -0.73916,0.26459 -1.12555,0.34146 -0.38638,0.0768 -0.77658,0.11527 -1.17053,0.1153 h -58 c -0.39398,-3e-5 -0.78418,-0.0385 -1.17059,-0.11533 -0.38639,-0.0769 -0.76157,-0.19067 -1.12552,-0.34143 -0.36399,-0.15078 -0.70978,-0.3356 -1.03733,-0.55444 -0.32757,-0.2189 -0.63064,-0.46762 -0.90921,-0.74619 -0.27859,-0.27859 -0.52731,-0.58163 -0.74621,-0.90917 -0.21887,-0.32761 -0.40369,-0.67338 -0.55444,-1.03736 -0.15076,-0.36398 -0.26456,-0.7392 -0.34144,-1.12558 C 305.03842,374.78412 305,374.39395 305,374 v -28 c 0,-0.39398 0.0384,-0.78418 0.11526,-1.17056 0.0769,-0.38642 0.19068,-0.7616 0.34144,-1.12558 0.15075,-0.36399 0.33557,-0.70975 0.55444,-1.03733 0.2189,-0.32754 0.46762,-0.63061 0.74621,-0.90918 0.27857,-0.27859 0.58164,-0.52731 0.90921,-0.74618 0.32755,-0.21887 0.67334,-0.40369 1.03733,-0.55447 0.36395,-0.15076 0.73913,-0.26456 1.12552,-0.3414 0.38641,-0.0768 0.77661,-0.11527 1.17059,-0.1153 z"
           style="fill:#c2d0dc;fill-opacity:1;fill-rule:nonzero;stroke:none"
           id="path133" /><path
           d="m 311,340 h 58 c 0.39395,3e-5 0.78415,0.0385 1.17056,0.1153 0.38636,0.0768 0.76154,0.19064 1.12552,0.3414 0.36398,0.15078 0.70975,0.3356 1.03736,0.55447 0.32754,0.21887 0.63058,0.46759 0.90917,0.74618 0.27854,0.27857 0.52726,0.58164 0.74616,0.90918 0.21887,0.32758 0.40369,0.67334 0.55444,1.03733 0.15076,0.36398 0.26459,0.73916 0.34146,1.12558 0.0769,0.38638 0.1153,0.77658 0.11533,1.17056 v 28 c -3e-5,0.39395 -0.0385,0.78412 -0.11533,1.1705 -0.0768,0.38638 -0.19064,0.7616 -0.3414,1.12558 -0.15078,0.36398 -0.33563,0.70975 -0.55447,1.03736 -0.2189,0.32754 -0.46765,0.63058 -0.74619,0.90917 -0.27859,0.27857 -0.58163,0.52729 -0.90917,0.74619 -0.32761,0.21884 -0.67338,0.40366 -1.03736,0.55444 -0.36398,0.15076 -0.73916,0.26459 -1.12555,0.34146 -0.38638,0.0768 -0.77658,0.11527 -1.17053,0.1153 h -58 c -0.39398,-3e-5 -0.78418,-0.0385 -1.17059,-0.11533 -0.38639,-0.0769 -0.76157,-0.19067 -1.12552,-0.34143 -0.36399,-0.15078 -0.70978,-0.3356 -1.03733,-0.55444 -0.32757,-0.2189 -0.63064,-0.46762 -0.90921,-0.74619 -0.27859,-0.27859 -0.52731,-0.58163 -0.74621,-0.90917 -0.21887,-0.32761 -0.40369,-0.67338 -0.55444,-1.03736 -0.15076,-0.36398 -0.26456,-0.7392 -0.34144,-1.12558 C 305.03842,374.78412 305,374.39395 305,374 v -28 c 0,-0.39398 0.0384,-0.78418 0.11526,-1.17056 0.0769,-0.38642 0.19068,-0.7616 0.34144,-1.12558 0.15075,-0.36399 0.33557,-0.70975 0.55444,-1.03733 0.2189,-0.32754 0.46762,-0.63061 0.74621,-0.90918 0.27857,-0.27859 0.58164,-0.52731 0.90921,-0.74618 0.32755,-0.21887 0.67334,-0.40369 1.03733,-0.55447 0.36395,-0.15076 0.73913,-0.26456 1.12552,-0.3414 0.38641,-0.0768 0.77661,-0.11527 1.17059,-0.1153 z"
           style="fill:none;stroke:#2f586e;stroke-width:1;stroke-linecap:butt;stroke-linejoin:miter;stroke-miterlimit:10;stroke-dasharray:none;stroke-opacity:1"
           id="path135" /></g><g
         id="g137"
         transform="scale(2.9941626)"><text
           xml:space="preserve"
           transform="translate(312.98438,364)"
           style="font-variant:normal;font-weight:normal;font-size:12px;font-family:Arial;-inkscape-font-specification:ArialMT;writing-mode:lr-tb;fill:#000000;fill-opacity:1;fill-rule:nonzero;stroke:none"
           id="text141"><tspan
             x="0 8.6660156 11.332031 17.332031 24.005859 28.001953 34.675781 38.009766 40.675781 47.349609"
             y="0"
             sodipodi:role="line"
             id="tspan139">Ulceration</tspan></text></g><g
         id="g143"
         transform="matrix(2.9941626,0,0,2.9941626,1.4970813,1.4970813)"><path
           d="m 399.25,341 h 64.5 c 0.39395,0 0.78412,0.0384 1.1705,0.1153 0.38642,0.0768 0.7616,0.19064 1.12558,0.3414 0.36395,0.15075 0.70972,0.33557 1.03729,0.55447 0.32758,0.21884 0.63065,0.46756 0.90924,0.74615 0.27857,0.27857 0.52729,0.58164 0.74613,0.90921 0.2189,0.32755 0.40372,0.67334 0.55447,1.03733 0.15079,0.36398 0.26459,0.73916 0.34146,1.12558 0.0769,0.38638 0.11533,0.77658 0.11533,1.17056 v 28 c 0,0.39395 -0.0385,0.78415 -0.11533,1.17056 -0.0769,0.38639 -0.19067,0.76157 -0.34143,1.12555 -0.15075,0.36399 -0.3356,0.70975 -0.5545,1.03729 -0.21884,0.32758 -0.46756,0.63065 -0.74613,0.90925 -0.27859,0.27853 -0.58166,0.52725 -0.90927,0.74615 -0.32754,0.21887 -0.67331,0.40369 -1.03729,0.55444 -0.36395,0.15076 -0.73913,0.26459 -1.12555,0.34146 C 464.53412,380.9616 464.14395,381 463.75,381 h -64.5 c -0.39398,0 -0.78418,-0.0384 -1.17056,-0.1153 -0.38645,-0.0769 -0.76163,-0.1907 -1.12561,-0.34146 -0.36399,-0.15075 -0.70978,-0.33557 -1.03733,-0.55444 -0.32757,-0.2189 -0.63064,-0.46762 -0.90918,-0.74615 -0.27859,-0.2786 -0.52734,-0.58167 -0.74621,-0.90928 -0.2189,-0.32754 -0.40372,-0.67331 -0.55448,-1.03729 -0.15075,-0.36398 -0.26455,-0.73916 -0.3414,-1.12558 -0.0769,-0.38638 -0.11526,-0.77655 -0.11523,-1.1705 v -28 c -3e-5,-0.39398 0.0384,-0.78418 0.11523,-1.17056 0.0768,-0.38642 0.19065,-0.7616 0.3414,-1.12558 0.15076,-0.36399 0.33558,-0.70978 0.55448,-1.03733 0.21887,-0.32757 0.46762,-0.63064 0.74621,-0.90921 0.27854,-0.27859 0.58161,-0.52731 0.90918,-0.74615 0.32755,-0.2189 0.67334,-0.40372 1.03733,-0.55447 0.36398,-0.15076 0.73916,-0.26456 1.12558,-0.3414 C 398.46582,341.03842 398.85602,341 399.25,341 Z"
           style="fill:#c2d0dc;fill-opacity:1;fill-rule:nonzero;stroke:none"
           id="path145" /><path
           d="m 399.25,341 h 64.5 c 0.39395,0 0.78412,0.0384 1.1705,0.1153 0.38642,0.0768 0.7616,0.19064 1.12558,0.3414 0.36395,0.15075 0.70972,0.33557 1.03729,0.55447 0.32758,0.21884 0.63065,0.46756 0.90924,0.74615 0.27857,0.27857 0.52729,0.58164 0.74613,0.90921 0.2189,0.32755 0.40372,0.67334 0.55447,1.03733 0.15079,0.36398 0.26459,0.73916 0.34146,1.12558 0.0769,0.38638 0.11533,0.77658 0.11533,1.17056 v 28 c 0,0.39395 -0.0385,0.78415 -0.11533,1.17056 -0.0769,0.38639 -0.19067,0.76157 -0.34143,1.12555 -0.15075,0.36399 -0.3356,0.70975 -0.5545,1.03729 -0.21884,0.32758 -0.46756,0.63065 -0.74613,0.90925 -0.27859,0.27853 -0.58166,0.52725 -0.90927,0.74615 -0.32754,0.21887 -0.67331,0.40369 -1.03729,0.55444 -0.36395,0.15076 -0.73913,0.26459 -1.12555,0.34146 C 464.53412,380.9616 464.14395,381 463.75,381 h -64.5 c -0.39398,0 -0.78418,-0.0384 -1.17056,-0.1153 -0.38645,-0.0769 -0.76163,-0.1907 -1.12561,-0.34146 -0.36399,-0.15075 -0.70978,-0.33557 -1.03733,-0.55444 -0.32757,-0.2189 -0.63064,-0.46762 -0.90918,-0.74615 -0.27859,-0.2786 -0.52734,-0.58167 -0.74621,-0.90928 -0.2189,-0.32754 -0.40372,-0.67331 -0.55448,-1.03729 -0.15075,-0.36398 -0.26455,-0.73916 -0.3414,-1.12558 -0.0769,-0.38638 -0.11526,-0.77655 -0.11523,-1.1705 v -28 c -3e-5,-0.39398 0.0384,-0.78418 0.11523,-1.17056 0.0768,-0.38642 0.19065,-0.7616 0.3414,-1.12558 0.15076,-0.36399 0.33558,-0.70978 0.55448,-1.03733 0.21887,-0.32757 0.46762,-0.63064 0.74621,-0.90921 0.27854,-0.27859 0.58161,-0.52731 0.90918,-0.74615 0.32755,-0.2189 0.67334,-0.40372 1.03733,-0.55447 0.36398,-0.15076 0.73916,-0.26456 1.12558,-0.3414 C 398.46582,341.03842 398.85602,341 399.25,341 Z"
           style="fill:none;stroke:#2f586e;stroke-width:1;stroke-linecap:butt;stroke-linejoin:miter;stroke-miterlimit:10;stroke-dasharray:none;stroke-opacity:1"
           id="path147" /></g><g
         id="g149"
         transform="scale(2.9941626)"><text
           xml:space="preserve"
           transform="translate(409.48438,365)"
           style="font-variant:normal;font-weight:normal;font-size:12px;font-family:Arial;-inkscape-font-specification:ArialMT;writing-mode:lr-tb;fill:#000000;fill-opacity:1;fill-rule:nonzero;stroke:none"
           id="text153"><tspan
             x="0 8.6660156 15.339844 18.005859 24.679688 31.353516 37.353516"
             y="0"
             sodipodi:role="line"
             id="tspan151">Relapse</tspan></text></g><g
         id="g155"
         transform="matrix(2.9941626,0,0,2.9941626,1.4970813,1.4970813)"><path
           d="m 249,320 v 20 -20 13.63"
           style="fill:none;stroke:#000000;stroke-width:1;stroke-linecap:butt;stroke-linejoin:miter;stroke-miterlimit:10;stroke-dasharray:none;stroke-opacity:1"
           id="path157" /><path
           d="m 249,338.88 -3.5,-7 3.5,1.75 3.5,-1.75 z"
           style="fill:#000000;fill-opacity:1;fill-rule:nonzero;stroke:none"
           id="path159" /><path
           d="m 249,338.88 -3.5,-7 3.5,1.75 3.5,-1.75 z"
           style="fill:none;stroke:#000000;stroke-width:1;stroke-linecap:butt;stroke-linejoin:miter;stroke-miterlimit:10;stroke-dasharray:none;stroke-opacity:1"
           id="path161" /><path
           d="m 218.5,290 h 61 c 0.59671,0 1.17075,0.11417 1.72208,0.34253 0.5513,0.22833 1.03793,0.5535 1.4599,0.97546 0.42193,0.42197 0.7471,0.90857 0.97546,1.45987 0.22836,0.55136 0.34253,1.1254 0.34256,1.72214 v 21 c -3e-5,0.59671 -0.1142,1.17075 -0.34256,1.72205 -0.22836,0.5513 -0.55353,1.03796 -0.97546,1.45993 -0.42197,0.4219 -0.9086,0.74707 -1.4599,0.97543 -0.55133,0.22836 -1.12537,0.34256 -1.72208,0.34259 h -61 c -0.59676,-3e-5 -1.17079,-0.11423 -1.72211,-0.34259 -0.5513,-0.22836 -1.03793,-0.55353 -1.45988,-0.97543 -0.42197,-0.42197 -0.74713,-0.90863 -0.97548,-1.45993 C 214.11415,316.67075 213.99998,316.09671 214,315.5 v -21 c -2e-5,-0.59674 0.11415,-1.17078 0.34251,-1.72214 0.22837,-0.5513 0.55353,-1.0379 0.9755,-1.45987 0.42195,-0.42196 0.90858,-0.74713 1.45988,-0.97546 C 217.32921,290.11417 217.90324,290 218.5,290 Z"
           style="fill:#c2d0dc;fill-opacity:1;fill-rule:nonzero;stroke:none"
           id="path163" /><path
           d="m 218.5,290 h 61 c 0.59671,0 1.17075,0.11417 1.72208,0.34253 0.5513,0.22833 1.03793,0.5535 1.4599,0.97546 0.42193,0.42197 0.7471,0.90857 0.97546,1.45987 0.22836,0.55136 0.34253,1.1254 0.34256,1.72214 v 21 c -3e-5,0.59671 -0.1142,1.17075 -0.34256,1.72205 -0.22836,0.5513 -0.55353,1.03796 -0.97546,1.45993 -0.42197,0.4219 -0.9086,0.74707 -1.4599,0.97543 -0.55133,0.22836 -1.12537,0.34256 -1.72208,0.34259 h -61 c -0.59676,-3e-5 -1.17079,-0.11423 -1.72211,-0.34259 -0.5513,-0.22836 -1.03793,-0.55353 -1.45988,-0.97543 -0.42197,-0.42197 -0.74713,-0.90863 -0.97548,-1.45993 C 214.11415,316.67075 213.99998,316.09671 214,315.5 v -21 c -2e-5,-0.59674 0.11415,-1.17078 0.34251,-1.72214 0.22837,-0.5513 0.55353,-1.0379 0.9755,-1.45987 0.42195,-0.42196 0.90858,-0.74713 1.45988,-0.97546 C 217.32921,290.11417 217.90324,290 218.5,290 Z"
           style="fill:none;stroke:#2f586e;stroke-width:1;stroke-linecap:butt;stroke-linejoin:miter;stroke-miterlimit:10;stroke-dasharray:none;stroke-opacity:1"
           id="path165" /></g><g
         id="g167"
         transform="scale(2.9941626)"><text
           xml:space="preserve"
           transform="translate(233.65625,309)"
           style="font-variant:normal;font-weight:normal;font-size:12px;font-family:Arial;-inkscape-font-specification:ArialMT;writing-mode:lr-tb;fill:#333333;fill-opacity:1;fill-rule:nonzero;stroke:none"
           id="text171"><tspan
             x="0 7.3300781 15.996094 19.992188 26.666016"
             y="0"
             sodipodi:role="line"
             id="tspan169">FC(5)</tspan></text></g><g
         id="g173"
         transform="matrix(2.9941626,0,0,2.9941626,1.4970813,1.4970813)"><path
           d="m 431.5,320 v 20 l -0.53,-5.34"
           style="fill:none;stroke:#000000;stroke-width:1;stroke-linecap:butt;stroke-linejoin:miter;stroke-miterlimit:10;stroke-dasharray:none;stroke-opacity:1"
           id="path175" /><path
           d="m 431.48999,339.89001 -4.17999,-6.62002 3.66,1.39001 3.29999,-2.08999 z"
           style="fill:#000000;fill-opacity:1;fill-rule:nonzero;stroke:none"
           id="path177" /><path
           d="m 431.48999,339.89001 -4.17999,-6.62002 3.66,1.39001 3.29999,-2.08999 z"
           style="fill:none;stroke:#000000;stroke-width:1;stroke-linecap:butt;stroke-linejoin:miter;stroke-miterlimit:10;stroke-dasharray:none;stroke-opacity:1"
           id="path179" /><path
           d="m 401,290 h 61 c 0.59671,0 1.17072,0.11417 1.72202,0.34253 0.5513,0.22833 1.03796,0.5535 1.45993,0.97546 0.42193,0.42197 0.7471,0.90857 0.97546,1.45987 0.22836,0.55136 0.34256,1.1254 0.34259,1.72214 v 21 c -3e-5,0.59671 -0.11426,1.17075 -0.34265,1.72205 -0.22833,0.5513 -0.55347,1.03796 -0.9754,1.45993 -0.42197,0.4219 -0.90863,0.74707 -1.45993,0.97543 -0.5513,0.22836 -1.12531,0.34256 -1.72202,0.34259 h -61 c -0.59677,-3e-5 -1.17084,-0.11423 -1.72217,-0.34259 -0.5513,-0.22836 -1.03793,-0.55353 -1.45987,-0.97543 -0.42199,-0.42197 -0.74716,-0.90863 -0.97549,-1.45993 -0.22836,-0.5513 -0.3425,-1.12534 -0.34247,-1.72205 v -21 c -3e-5,-0.59674 0.11411,-1.17078 0.34247,-1.72214 0.22833,-0.5513 0.5535,-1.0379 0.97549,-1.45987 0.42194,-0.42196 0.90857,-0.74713 1.45987,-0.97546 C 399.82916,290.11417 400.40323,290 401,290 Z"
           style="fill:#c2d0dc;fill-opacity:1;fill-rule:nonzero;stroke:none"
           id="path181" /><path
           d="m 401,290 h 61 c 0.59671,0 1.17072,0.11417 1.72202,0.34253 0.5513,0.22833 1.03796,0.5535 1.45993,0.97546 0.42193,0.42197 0.7471,0.90857 0.97546,1.45987 0.22836,0.55136 0.34256,1.1254 0.34259,1.72214 v 21 c -3e-5,0.59671 -0.11426,1.17075 -0.34265,1.72205 -0.22833,0.5513 -0.55347,1.03796 -0.9754,1.45993 -0.42197,0.4219 -0.90863,0.74707 -1.45993,0.97543 -0.5513,0.22836 -1.12531,0.34256 -1.72202,0.34259 h -61 c -0.59677,-3e-5 -1.17084,-0.11423 -1.72217,-0.34259 -0.5513,-0.22836 -1.03793,-0.55353 -1.45987,-0.97543 -0.42199,-0.42197 -0.74716,-0.90863 -0.97549,-1.45993 -0.22836,-0.5513 -0.3425,-1.12534 -0.34247,-1.72205 v -21 c -3e-5,-0.59674 0.11411,-1.17078 0.34247,-1.72214 0.22833,-0.5513 0.5535,-1.0379 0.97549,-1.45987 0.42194,-0.42196 0.90857,-0.74713 1.45987,-0.97546 C 399.82916,290.11417 400.40323,290 401,290 Z"
           style="fill:none;stroke:#2f586e;stroke-width:1;stroke-linecap:butt;stroke-linejoin:miter;stroke-miterlimit:10;stroke-dasharray:none;stroke-opacity:1"
           id="path183" /></g><g
         id="g185"
         transform="scale(2.9941626)"><text
           xml:space="preserve"
           transform="translate(415,302)"
           style="font-variant:normal;font-weight:normal;font-size:12px;font-family:Arial;-inkscape-font-specification:ArialMT;writing-mode:lr-tb;fill:#333333;fill-opacity:1;fill-rule:nonzero;stroke:none"
           id="text189"><tspan
             x="0 7.3300781 15.996094 19.992188 26.666016 30.662109"
             y="0"
             sodipodi:role="line"
             id="tspan187">FC(1),</tspan></text><text
           xml:space="preserve"
           transform="translate(410.3125,317)"
           style="font-variant:normal;font-weight:normal;font-size:12px;font-family:Arial;-inkscape-font-specification:ArialMT;writing-mode:lr-tb;fill:#333333;fill-opacity:1;fill-rule:nonzero;stroke:none"
           id="text193"><tspan
             x="0 8.0039062 10.669922 17.34375 27.339844 34.013672 36.679688"
             y="0"
             sodipodi:role="line"
             id="tspan191">Sigmoid</tspan></text></g><g
         id="g195"
         transform="matrix(2.9941626,0,0,2.9941626,1.4970813,1.4970813)"><path
           d="m 340,320 v 20 -20 13.63"
           style="fill:none;stroke:#000000;stroke-width:1;stroke-linecap:butt;stroke-linejoin:miter;stroke-miterlimit:10;stroke-dasharray:none;stroke-opacity:1"
           id="path197" /><path
           d="m 340,338.88 -3.5,-7 3.5,1.75 3.5,-1.75 z"
           style="fill:#000000;fill-opacity:1;fill-rule:nonzero;stroke:none"
           id="path199" /><path
           d="m 340,338.88 -3.5,-7 3.5,1.75 3.5,-1.75 z"
           style="fill:none;stroke:#000000;stroke-width:1;stroke-linecap:butt;stroke-linejoin:miter;stroke-miterlimit:10;stroke-dasharray:none;stroke-opacity:1"
           id="path201" /><path
           d="m 309.5,290 h 61 c 0.59671,0 1.17072,0.11417 1.72202,0.34253 0.5513,0.22833 1.03796,0.5535 1.45993,0.97546 0.42193,0.42197 0.7471,0.90857 0.97546,1.45987 0.22836,0.55136 0.34256,1.1254 0.34259,1.72214 v 21 c -3e-5,0.59671 -0.11423,1.17075 -0.34259,1.72205 -0.22836,0.5513 -0.55353,1.03796 -0.97546,1.45993 -0.42197,0.4219 -0.90863,0.74707 -1.45993,0.97543 -0.5513,0.22836 -1.12531,0.34256 -1.72202,0.34259 h -61 c -0.59677,-3e-5 -1.17078,-0.11423 -1.72208,-0.34259 -0.55133,-0.22836 -1.03796,-0.55353 -1.4599,-0.97543 -0.42196,-0.42197 -0.74713,-0.90863 -0.97552,-1.45993 -0.22836,-0.5513 -0.34253,-1.12534 -0.3425,-1.72205 v -21 c -3e-5,-0.59674 0.11414,-1.17078 0.3425,-1.72214 0.22839,-0.5513 0.55356,-1.0379 0.97552,-1.45987 0.42194,-0.42196 0.90857,-0.74713 1.4599,-0.97546 C 308.32922,290.11417 308.90323,290 309.5,290 Z"
           style="fill:#c2d0dc;fill-opacity:1;fill-rule:nonzero;stroke:none"
           id="path203" /><path
           d="m 309.5,290 h 61 c 0.59671,0 1.17072,0.11417 1.72202,0.34253 0.5513,0.22833 1.03796,0.5535 1.45993,0.97546 0.42193,0.42197 0.7471,0.90857 0.97546,1.45987 0.22836,0.55136 0.34256,1.1254 0.34259,1.72214 v 21 c -3e-5,0.59671 -0.11423,1.17075 -0.34259,1.72205 -0.22836,0.5513 -0.55353,1.03796 -0.97546,1.45993 -0.42197,0.4219 -0.90863,0.74707 -1.45993,0.97543 -0.5513,0.22836 -1.12531,0.34256 -1.72202,0.34259 h -61 c -0.59677,-3e-5 -1.17078,-0.11423 -1.72208,-0.34259 -0.55133,-0.22836 -1.03796,-0.55353 -1.4599,-0.97543 -0.42196,-0.42197 -0.74713,-0.90863 -0.97552,-1.45993 -0.22836,-0.5513 -0.34253,-1.12534 -0.3425,-1.72205 v -21 c -3e-5,-0.59674 0.11414,-1.17078 0.3425,-1.72214 0.22839,-0.5513 0.55356,-1.0379 0.97552,-1.45987 0.42194,-0.42196 0.90857,-0.74713 1.4599,-0.97546 C 308.32922,290.11417 308.90323,290 309.5,290 Z"
           style="fill:none;stroke:#2f586e;stroke-width:1;stroke-linecap:butt;stroke-linejoin:miter;stroke-miterlimit:10;stroke-dasharray:none;stroke-opacity:1"
           id="path205" /></g><g
         id="g207"
         transform="scale(2.9941626)"><text
           xml:space="preserve"
           transform="translate(321.32813,302)"
           style="font-variant:normal;font-weight:normal;font-size:12px;font-family:Arial;-inkscape-font-specification:ArialMT;writing-mode:lr-tb;fill:#333333;fill-opacity:1;fill-rule:nonzero;stroke:none"
           id="text211"><tspan
             x="0 7.3300781 15.996094 19.330078 23.326172 30 33.996094"
             y="0"
             sodipodi:role="line"
             id="tspan209">FC (1),</tspan></text><text
           xml:space="preserve"
           transform="translate(318.3125,317)"
           style="font-variant:normal;font-weight:normal;font-size:12px;font-family:Arial;-inkscape-font-specification:ArialMT;writing-mode:lr-tb;fill:#333333;fill-opacity:1;fill-rule:nonzero;stroke:none"
           id="text215"><tspan
             x="0 8.0039062 10.669922 17.34375 27.339844 34.013672 36.679688"
             y="0"
             sodipodi:role="line"
             id="tspan213">Sigmoid</tspan></text></g></g></g></svg>
