<?xml version="1.0" encoding="UTF-8" standalone="no"?>
<!-- Created with Inkscape (http://www.inkscape.org/) -->

<svg
   width="92.276093mm"
   height="125.23183mm"
   viewBox="0 0 92.276093 125.23183"
   version="1.1"
   id="svg5"
   xml:space="preserve"
   xmlns:inkscape="http://www.inkscape.org/namespaces/inkscape"
   xmlns:sodipodi="http://sodipodi.sourceforge.net/DTD/sodipodi-0.dtd"
   xmlns="http://www.w3.org/2000/svg"
   xmlns:svg="http://www.w3.org/2000/svg"><sodipodi:namedview
     id="namedview7"
     pagecolor="#ffffff"
     bordercolor="#000000"
     borderopacity="0.25"
     inkscape:showpageshadow="2"
     inkscape:pageopacity="0.0"
     inkscape:pagecheckerboard="0"
     inkscape:deskcolor="#d1d1d1"
     inkscape:document-units="mm"
     showgrid="false" /><defs
     id="defs2"><clipPath
       clipPathUnits="userSpaceOnUse"
       id="clipPath816"><path
         d="M 0,0 H 2479.1665 V 3503.1702 H 0 Z"
         clip-rule="evenodd"
         id="path814" /></clipPath></defs><g
     id="g810"
     transform="matrix(0.08466666,0,0,0.08466666,-16.47788,-30.927701)"><g
       id="g812"
       clip-path="url(#clipPath816)"><g
         id="g818"
         transform="matrix(2.9941626,0,0,2.9941626,1.4970813,1.4970813)"><path
           d="m 140,160 v 20 -12 13.63"
           style="fill:none;stroke:#000000;stroke-width:1;stroke-linecap:butt;stroke-linejoin:miter;stroke-miterlimit:10;stroke-dasharray:none;stroke-opacity:1"
           id="path820" /><path
           d="m 140,186.88 -3.5,-7 3.5,1.75 3.5,-1.75 z"
           style="fill:#000000;fill-opacity:1;fill-rule:nonzero;stroke:none"
           id="path822" /><path
           d="m 140,186.88 -3.5,-7 3.5,1.75 3.5,-1.75 z"
           style="fill:none;stroke:#000000;stroke-width:1;stroke-linecap:butt;stroke-linejoin:miter;stroke-miterlimit:10;stroke-dasharray:none;stroke-opacity:1"
           id="path824" /><path
           d="m 84.5,130 h 111 c 0.59673,0 1.17073,0.11418 1.72205,0.34253 0.55131,0.22836 1.03794,0.55353 1.45991,0.97548 0.42195,0.42195 0.7471,0.90858 0.97548,1.4599 0.22835,0.55131 0.34254,1.12535 0.34256,1.72209 v 21 c -2e-5,0.59672 -0.11421,1.17075 -0.34259,1.72206 -0.22835,0.55132 -0.5535,1.03795 -0.97545,1.45992 -0.42197,0.42195 -0.9086,0.7471 -1.45991,0.97545 -0.55132,0.22837 -1.12532,0.34255 -1.72205,0.34257 h -111 c -0.596748,-2e-5 -1.170776,-0.1142 -1.722084,-0.34257 -0.551315,-0.22835 -1.037949,-0.5535 -1.4599,-0.97545 -0.421967,-0.42197 -0.747131,-0.9086 -0.975487,-1.45992 C 80.114174,156.67075 79.999992,156.09672 80,155.5 v -21 c -8e-6,-0.59674 0.114174,-1.17078 0.342529,-1.72209 0.228356,-0.55132 0.55352,-1.03795 0.975487,-1.4599 0.421951,-0.42195 0.908585,-0.74712 1.4599,-0.97548 C 83.329224,130.11418 83.903252,130 84.5,130 Z"
           style="fill:#c2d0dc;fill-opacity:1;fill-rule:nonzero;stroke:none"
           id="path826" /><path
           d="m 84.5,130 h 111 c 0.59673,0 1.17073,0.11418 1.72205,0.34253 0.55131,0.22836 1.03794,0.55353 1.45991,0.97548 0.42195,0.42195 0.7471,0.90858 0.97548,1.4599 0.22835,0.55131 0.34254,1.12535 0.34256,1.72209 v 21 c -2e-5,0.59672 -0.11421,1.17075 -0.34259,1.72206 -0.22835,0.55132 -0.5535,1.03795 -0.97545,1.45992 -0.42197,0.42195 -0.9086,0.7471 -1.45991,0.97545 -0.55132,0.22837 -1.12532,0.34255 -1.72205,0.34257 h -111 c -0.596748,-2e-5 -1.170776,-0.1142 -1.722084,-0.34257 -0.551315,-0.22835 -1.037949,-0.5535 -1.4599,-0.97545 -0.421967,-0.42197 -0.747131,-0.9086 -0.975487,-1.45992 C 80.114174,156.67075 79.999992,156.09672 80,155.5 v -21 c -8e-6,-0.59674 0.114174,-1.17078 0.342529,-1.72209 0.228356,-0.55132 0.55352,-1.03795 0.975487,-1.4599 0.421951,-0.42195 0.908585,-0.74712 1.4599,-0.97548 C 83.329224,130.11418 83.903252,130 84.5,130 Z"
           style="fill:none;stroke:#2f586e;stroke-width:1;stroke-linecap:butt;stroke-linejoin:miter;stroke-miterlimit:10;stroke-dasharray:none;stroke-opacity:1"
           id="path828" /></g><g
         id="g830"
         transform="scale(2.9941626)"><text
           xml:space="preserve"
           transform="translate(128.65625,149)"
           style="font-variant:normal;font-weight:normal;font-size:12px;font-family:Arial;-inkscape-font-specification:ArialMT;writing-mode:lr-tb;fill:#000000;fill-opacity:1;fill-rule:nonzero;stroke:none"
           id="text834"><tspan
             x="0 11.326172 19.330078"
             y="0"
             sodipodi:role="line"
             id="tspan832">WSI</tspan></text></g><g
         id="g836"
         transform="matrix(2.9941626,0,0,2.9941626,1.4970813,1.4970813)"><path
           d="m 140,228 v 20 -14 13.63"
           style="fill:none;stroke:#000000;stroke-width:1;stroke-linecap:butt;stroke-linejoin:miter;stroke-miterlimit:10;stroke-dasharray:none;stroke-opacity:1"
           id="path838" /><path
           d="m 140,252.88 -3.5,-7 3.5,1.75 3.5,-1.75 z"
           style="fill:#000000;fill-opacity:1;fill-rule:nonzero;stroke:none"
           id="path840" /><path
           d="m 140,252.88 -3.5,-7 3.5,1.75 3.5,-1.75 z"
           style="fill:none;stroke:#000000;stroke-width:1;stroke-linecap:butt;stroke-linejoin:miter;stroke-miterlimit:10;stroke-dasharray:none;stroke-opacity:1"
           id="path842" /><path
           d="m 86,188 h 108 c 0.39397,0 0.78413,0.0384 1.17053,0.11526 0.38639,0.0769 0.76157,0.19068 1.12555,0.34144 0.36398,0.15077 0.70975,0.3356 1.03731,0.55445 0.32759,0.21889 0.63066,0.46761 0.90924,0.74619 0.27858,0.27856 0.5273,0.58163 0.74619,0.90921 0.21885,0.32756 0.40367,0.67334 0.55444,1.03732 0.15076,0.36399 0.26457,0.73918 0.34143,1.12558 0.0769,0.3864 0.11529,0.77658 0.11531,1.17055 v 28 c -2e-5,0.39395 -0.0385,0.78412 -0.11531,1.17052 -0.0769,0.3864 -0.19069,0.76158 -0.34145,1.12555 -0.15077,0.36396 -0.33558,0.70974 -0.55444,1.03732 -0.21887,0.32756 -0.46759,0.63065 -0.74617,0.90922 -0.27858,0.27857 -0.58165,0.52729 -0.90923,0.74616 -0.32756,0.21889 -0.67334,0.4037 -1.03732,0.55447 -0.36398,0.15078 -0.73916,0.26459 -1.12553,0.34145 -0.3864,0.0769 -0.77658,0.11529 -1.17055,0.11531 H 86 c -0.393974,-2e-5 -0.784157,-0.0385 -1.170547,-0.11533 -0.386399,-0.0768 -0.761582,-0.19065 -1.125557,-0.34143 -0.363984,-0.15077 -0.709763,-0.33558 -1.037331,-0.55446 -0.327568,-0.21888 -0.630638,-0.4676 -0.90921,-0.74617 -0.27858,-0.27857 -0.527306,-0.58166 -0.746186,-0.90922 -0.218879,-0.32758 -0.403694,-0.67336 -0.554458,-1.03732 -0.150765,-0.36397 -0.264572,-0.73915 -0.341438,-1.12555 C 80.038422,222.78412 79.999992,222.39395 80,222 v -28 c -8e-6,-0.39397 0.03842,-0.78415 0.115273,-1.17055 0.07687,-0.3864 0.190673,-0.76159 0.341438,-1.12558 0.150764,-0.36398 0.335579,-0.70976 0.554458,-1.03732 0.21888,-0.32758 0.467606,-0.63065 0.746186,-0.90921 0.278572,-0.27858 0.581642,-0.5273 0.90921,-0.74617 0.327568,-0.21887 0.673347,-0.4037 1.037331,-0.55447 0.363975,-0.15076 0.739158,-0.26458 1.125557,-0.34144 C 85.215843,188.03842 85.606026,188 86,188 Z"
           style="fill:#c2d0dc;fill-opacity:1;fill-rule:nonzero;stroke:none"
           id="path844" /><path
           d="m 86,188 h 108 c 0.39397,0 0.78413,0.0384 1.17053,0.11526 0.38639,0.0769 0.76157,0.19068 1.12555,0.34144 0.36398,0.15077 0.70975,0.3356 1.03731,0.55445 0.32759,0.21889 0.63066,0.46761 0.90924,0.74619 0.27858,0.27856 0.5273,0.58163 0.74619,0.90921 0.21885,0.32756 0.40367,0.67334 0.55444,1.03732 0.15076,0.36399 0.26457,0.73918 0.34143,1.12558 0.0769,0.3864 0.11529,0.77658 0.11531,1.17055 v 28 c -2e-5,0.39395 -0.0385,0.78412 -0.11531,1.17052 -0.0769,0.3864 -0.19069,0.76158 -0.34145,1.12555 -0.15077,0.36396 -0.33558,0.70974 -0.55444,1.03732 -0.21887,0.32756 -0.46759,0.63065 -0.74617,0.90922 -0.27858,0.27857 -0.58165,0.52729 -0.90923,0.74616 -0.32756,0.21889 -0.67334,0.4037 -1.03732,0.55447 -0.36398,0.15078 -0.73916,0.26459 -1.12553,0.34145 -0.3864,0.0769 -0.77658,0.11529 -1.17055,0.11531 H 86 c -0.393974,-2e-5 -0.784157,-0.0385 -1.170547,-0.11533 -0.386399,-0.0768 -0.761582,-0.19065 -1.125557,-0.34143 -0.363984,-0.15077 -0.709763,-0.33558 -1.037331,-0.55446 -0.327568,-0.21888 -0.630638,-0.4676 -0.90921,-0.74617 -0.27858,-0.27857 -0.527306,-0.58166 -0.746186,-0.90922 -0.218879,-0.32758 -0.403694,-0.67336 -0.554458,-1.03732 -0.150765,-0.36397 -0.264572,-0.73915 -0.341438,-1.12555 C 80.038422,222.78412 79.999992,222.39395 80,222 v -28 c -8e-6,-0.39397 0.03842,-0.78415 0.115273,-1.17055 0.07687,-0.3864 0.190673,-0.76159 0.341438,-1.12558 0.150764,-0.36398 0.335579,-0.70976 0.554458,-1.03732 0.21888,-0.32758 0.467606,-0.63065 0.746186,-0.90921 0.278572,-0.27858 0.581642,-0.5273 0.90921,-0.74617 0.327568,-0.21887 0.673347,-0.4037 1.037331,-0.55447 0.363975,-0.15076 0.739158,-0.26458 1.125557,-0.34144 C 85.215843,188.03842 85.606026,188 86,188 Z"
           style="fill:none;stroke:#2f586e;stroke-width:1;stroke-linecap:butt;stroke-linejoin:miter;stroke-miterlimit:10;stroke-dasharray:none;stroke-opacity:1"
           id="path846" /></g><g
         id="g848"
         transform="scale(2.9941626)"><text
           xml:space="preserve"
           transform="translate(121.65625,205)"
           style="font-variant:normal;font-weight:normal;font-size:12px;font-family:Arial;-inkscape-font-specification:ArialMT;writing-mode:lr-tb;fill:#000000;fill-opacity:1;fill-rule:nonzero;stroke:none"
           id="text852"><tspan
             x="0 8.6660156 15.339844 21.339844 24.005859 30.005859"
             y="0"
             sodipodi:role="line"
             id="tspan850">Resize</tspan></text><text
           xml:space="preserve"
           transform="translate(105.96875,220)"
           style="font-variant:normal;font-weight:normal;font-size:12px;font-family:Arial;-inkscape-font-specification:ArialMT;writing-mode:lr-tb;fill:#000000;fill-opacity:1;fill-rule:nonzero;stroke:none"
           id="text856"><tspan
             x="0 3.9960938 10.669922 17.34375 24.017578 30.691406 34.025391 37.359375 44.033203 50.707031 57.380859 64.054688"
             y="0"
             sodipodi:role="line"
             id="tspan854">(1024, 1024)</tspan></text></g><g
         id="g858"
         transform="matrix(2.9941626,0,0,2.9941626,1.4970813,1.4970813)"><path
           d="m 140,294 v 20 -4 13.63"
           style="fill:none;stroke:#000000;stroke-width:1;stroke-linecap:butt;stroke-linejoin:miter;stroke-miterlimit:10;stroke-dasharray:none;stroke-opacity:1"
           id="path860" /><path
           d="m 140,328.88 -3.5,-7 3.5,1.75 3.5,-1.75 z"
           style="fill:#000000;fill-opacity:1;fill-rule:nonzero;stroke:none"
           id="path862" /><path
           d="m 140,328.88 -3.5,-7 3.5,1.75 3.5,-1.75 z"
           style="fill:none;stroke:#000000;stroke-width:1;stroke-linecap:butt;stroke-linejoin:miter;stroke-miterlimit:10;stroke-dasharray:none;stroke-opacity:1"
           id="path864" /><path
           d="m 81,254 h 118 c 0.39397,0 0.78413,0.0384 1.17053,0.1153 0.3864,0.0768 0.7616,0.19064 1.12557,0.3414 0.36396,0.15075 0.70974,0.33557 1.03732,0.55444 0.32756,0.21889 0.63065,0.46762 0.90923,0.7462 0.27856,0.27855 0.52728,0.58162 0.74615,0.90919 0.21886,0.32758 0.40369,0.67334 0.55446,1.03733 0.15077,0.36398 0.26459,0.73916 0.34144,1.12558 0.0769,0.38638 0.11528,0.77658 0.1153,1.17056 v 28 c -2e-5,0.39395 -0.0384,0.78415 -0.1153,1.17053 -0.0769,0.38639 -0.19067,0.76154 -0.34143,1.12552 -0.15077,0.36398 -0.33558,0.70975 -0.55445,1.03732 -0.21889,0.32755 -0.46761,0.63065 -0.74617,0.90924 -0.27858,0.27857 -0.58167,0.52729 -0.90923,0.74619 -0.32758,0.21887 -0.67336,0.40369 -1.03732,0.55447 -0.36397,0.15079 -0.73915,0.26459 -1.12555,0.34147 C 199.78415,293.96158 199.39397,294 199,294 H 81 c -0.393967,0 -0.784149,-0.0384 -1.170555,-0.11526 -0.386391,-0.0769 -0.761574,-0.19068 -1.125557,-0.34147 -0.363976,-0.15078 -0.709747,-0.3356 -1.037315,-0.55447 -0.327568,-0.2189 -0.630646,-0.46762 -0.909218,-0.74619 -0.27858,-0.27859 -0.527306,-0.58169 -0.746186,-0.90924 -0.218872,-0.32757 -0.403686,-0.67334 -0.554451,-1.03732 -0.150772,-0.36398 -0.264587,-0.73913 -0.341438,-1.12552 C 75.038422,288.78415 74.999992,288.39395 75,288 v -28 c -8e-6,-0.39398 0.03842,-0.78418 0.11528,-1.17056 0.07685,-0.38642 0.190666,-0.7616 0.341438,-1.12558 0.150765,-0.36399 0.335579,-0.70975 0.554451,-1.03733 0.21888,-0.32757 0.467606,-0.63064 0.746186,-0.90919 0.278572,-0.27858 0.58165,-0.52731 0.909218,-0.7462 0.327568,-0.21887 0.673339,-0.40369 1.037315,-0.55444 0.363983,-0.15076 0.739166,-0.26456 1.125557,-0.3414 C 80.215851,254.03844 80.606033,254 81,254 Z"
           style="fill:#c2d0dc;fill-opacity:1;fill-rule:nonzero;stroke:none"
           id="path866" /><path
           d="m 81,254 h 118 c 0.39397,0 0.78413,0.0384 1.17053,0.1153 0.3864,0.0768 0.7616,0.19064 1.12557,0.3414 0.36396,0.15075 0.70974,0.33557 1.03732,0.55444 0.32756,0.21889 0.63065,0.46762 0.90923,0.7462 0.27856,0.27855 0.52728,0.58162 0.74615,0.90919 0.21886,0.32758 0.40369,0.67334 0.55446,1.03733 0.15077,0.36398 0.26459,0.73916 0.34144,1.12558 0.0769,0.38638 0.11528,0.77658 0.1153,1.17056 v 28 c -2e-5,0.39395 -0.0384,0.78415 -0.1153,1.17053 -0.0769,0.38639 -0.19067,0.76154 -0.34143,1.12552 -0.15077,0.36398 -0.33558,0.70975 -0.55445,1.03732 -0.21889,0.32755 -0.46761,0.63065 -0.74617,0.90924 -0.27858,0.27857 -0.58167,0.52729 -0.90923,0.74619 -0.32758,0.21887 -0.67336,0.40369 -1.03732,0.55447 -0.36397,0.15079 -0.73915,0.26459 -1.12555,0.34147 C 199.78415,293.96158 199.39397,294 199,294 H 81 c -0.393967,0 -0.784149,-0.0384 -1.170555,-0.11526 -0.386391,-0.0769 -0.761574,-0.19068 -1.125557,-0.34147 -0.363976,-0.15078 -0.709747,-0.3356 -1.037315,-0.55447 -0.327568,-0.2189 -0.630646,-0.46762 -0.909218,-0.74619 -0.27858,-0.27859 -0.527306,-0.58169 -0.746186,-0.90924 -0.218872,-0.32757 -0.403686,-0.67334 -0.554451,-1.03732 -0.150772,-0.36398 -0.264587,-0.73913 -0.341438,-1.12552 C 75.038422,288.78415 74.999992,288.39395 75,288 v -28 c -8e-6,-0.39398 0.03842,-0.78418 0.11528,-1.17056 0.07685,-0.38642 0.190666,-0.7616 0.341438,-1.12558 0.150765,-0.36399 0.335579,-0.70975 0.554451,-1.03733 0.21888,-0.32757 0.467606,-0.63064 0.746186,-0.90919 0.278572,-0.27858 0.58165,-0.52731 0.909218,-0.7462 0.327568,-0.21887 0.673339,-0.40369 1.037315,-0.55444 0.363983,-0.15076 0.739166,-0.26456 1.125557,-0.3414 C 80.215851,254.03844 80.606033,254 81,254 Z"
           style="fill:none;stroke:#2f586e;stroke-width:1;stroke-linecap:butt;stroke-linejoin:miter;stroke-miterlimit:10;stroke-dasharray:none;stroke-opacity:1"
           id="path868" /></g><g
         id="g870"
         transform="scale(2.9941626)"><text
           xml:space="preserve"
           transform="translate(111.3125,271)"
           style="font-variant:normal;font-weight:normal;font-size:12px;font-family:Arial;-inkscape-font-specification:ArialMT;writing-mode:lr-tb;fill:#000000;fill-opacity:1;fill-rule:nonzero;stroke:none"
           id="text874"><tspan
             x="0 8.6660156 15.339844 21.339844 30.005859 36.679688 40.013672 44.009766 50.683594"
             y="0"
             sodipodi:role="line"
             id="tspan872">ResNet-34</tspan></text><text
           xml:space="preserve"
           transform="translate(80.640625,286)"
           style="font-variant:normal;font-weight:normal;font-size:12px;font-family:Arial;-inkscape-font-specification:ArialMT;writing-mode:lr-tb;fill:#000000;fill-opacity:1;fill-rule:nonzero;stroke:none"
           id="text878"><tspan
             x="0 3.9960938 7.3300781 17.326172 24 30.673828 37.347656 46.013672 52.6875 56.021484 59.355469 67.359375 71.355469 78.029297 81.363281 85.359375 92.033203 94.699219 101.37305 108.04688 114.7207"
             y="0"
             sodipodi:role="line"
             id="tspan876">(ImageNet Pretrained)</tspan></text><text
           xml:space="preserve"
           transform="translate(256.48438,148)"
           style="font-variant:normal;font-weight:normal;font-size:12px;font-family:Arial;-inkscape-font-specification:ArialMT;writing-mode:lr-tb;fill:#000000;fill-opacity:1;fill-rule:nonzero;stroke:none"
           id="text882"><tspan
             x="0 7.3300781 11.326172 18 24 30.673828 37.347656 40.681641 44.015625 54.011719 60.685547 67.359375"
             y="0"
             sodipodi:role="line"
             id="tspan880">Frozen Image</tspan></text><text
           xml:space="preserve"
           transform="translate(247.15625,162)"
           style="font-variant:normal;font-weight:normal;font-size:12px;font-family:Arial;-inkscape-font-specification:ArialMT;writing-mode:lr-tb;fill:#000000;fill-opacity:1;fill-rule:nonzero;stroke:none"
           id="text886"><tspan
             x="0 7.3300781 14.003906 20.677734 24.011719 30.685547 34.681641 41.355469 44.689453 52.693359 58.693359 62.027344 66.023438 72.697266 78.697266 82.03125 88.705078"
             y="0"
             sodipodi:role="line"
             id="tspan884">Feature Extractor</tspan></text><text
           xml:space="preserve"
           transform="translate(251.14063,177)"
           style="font-variant:normal;font-weight:normal;font-size:12px;font-family:Arial;-inkscape-font-specification:ArialMT;writing-mode:lr-tb;fill:#000000;fill-opacity:1;fill-rule:nonzero;stroke:none"
           id="text890"><tspan
             x="0 3.3339844 7.3300781 14.003906 24 27.333984 35.337891 38.671875 45.345703 52.019531 58.693359 62.027344 71.361328 78.035156"
             y="0"
             sodipodi:role="line"
             id="tspan888">from Stage One</tspan></text></g><g
         id="g892"
         transform="matrix(2.9941626,0,0,2.9941626,1.4970813,1.4970813)"><path
           d="m 353.29999,302 v 20 l 0.21002,11.63"
           style="fill:none;stroke:#000000;stroke-width:1;stroke-linecap:butt;stroke-linejoin:miter;stroke-miterlimit:10;stroke-dasharray:none;stroke-opacity:1"
           id="path894" /><path
           d="m 353.60001,338.88 -3.62,-6.92999 3.53,1.67999 3.47,-1.80999 z"
           style="fill:#000000;fill-opacity:1;fill-rule:nonzero;stroke:none"
           id="path896" /><path
           d="m 353.60001,338.88 -3.62,-6.92999 3.53,1.67999 3.47,-1.80999 z"
           style="fill:none;stroke:#000000;stroke-width:1;stroke-linecap:butt;stroke-linejoin:miter;stroke-miterlimit:10;stroke-dasharray:none;stroke-opacity:1"
           id="path898" /><path
           d="m 300.75,272 h 105 c 0.59671,0 1.17072,0.11417 1.72205,0.3425 0.5513,0.22836 1.03796,0.55353 1.45993,0.97549 0.42193,0.42194 0.74707,0.90857 0.97543,1.4599 0.22836,0.5513 0.34256,1.12534 0.34259,1.72211 v 21 c -3e-5,0.59671 -0.1142,1.17075 -0.34256,1.72205 -0.22836,0.5513 -0.55353,1.03796 -0.97546,1.45993 -0.42197,0.42193 -0.90863,0.7471 -1.45993,0.97546 -0.55133,0.22836 -1.12534,0.34253 -1.72205,0.34256 h -105 c -0.59677,-3e-5 -1.17081,-0.1142 -1.72211,-0.34256 -0.55133,-0.22836 -1.03796,-0.55353 -1.4599,-0.97546 -0.42196,-0.42197 -0.74713,-0.90863 -0.97549,-1.45993 -0.22836,-0.5513 -0.34253,-1.12534 -0.3425,-1.72205 v -21 c -3e-5,-0.59677 0.11414,-1.17081 0.3425,-1.72211 0.22836,-0.55133 0.55353,-1.03796 0.97549,-1.4599 0.42194,-0.42196 0.90857,-0.74713 1.4599,-0.97549 C 299.57919,272.11417 300.15323,272 300.75,272 Z"
           style="fill:#c2d0dc;fill-opacity:1;fill-rule:nonzero;stroke:none"
           id="path900" /><path
           d="m 300.75,272 h 105 c 0.59671,0 1.17072,0.11417 1.72205,0.3425 0.5513,0.22836 1.03796,0.55353 1.45993,0.97549 0.42193,0.42194 0.74707,0.90857 0.97543,1.4599 0.22836,0.5513 0.34256,1.12534 0.34259,1.72211 v 21 c -3e-5,0.59671 -0.1142,1.17075 -0.34256,1.72205 -0.22836,0.5513 -0.55353,1.03796 -0.97546,1.45993 -0.42197,0.42193 -0.90863,0.7471 -1.45993,0.97546 -0.55133,0.22836 -1.12534,0.34253 -1.72205,0.34256 h -105 c -0.59677,-3e-5 -1.17081,-0.1142 -1.72211,-0.34256 -0.55133,-0.22836 -1.03796,-0.55353 -1.4599,-0.97546 -0.42196,-0.42197 -0.74713,-0.90863 -0.97549,-1.45993 -0.22836,-0.5513 -0.34253,-1.12534 -0.3425,-1.72205 v -21 c -3e-5,-0.59677 0.11414,-1.17081 0.3425,-1.72211 0.22836,-0.55133 0.55353,-1.03796 0.97549,-1.4599 0.42194,-0.42196 0.90857,-0.74713 1.4599,-0.97549 C 299.57919,272.11417 300.15323,272 300.75,272 Z"
           style="fill:none;stroke:#2f586e;stroke-width:1;stroke-linecap:butt;stroke-linejoin:miter;stroke-miterlimit:10;stroke-dasharray:none;stroke-opacity:1"
           id="path902" /></g><g
         id="g904"
         transform="scale(2.9941626)"><text
           xml:space="preserve"
           transform="translate(325.3125,291)"
           style="font-variant:normal;font-weight:normal;font-size:12px;font-family:Arial;-inkscape-font-specification:ArialMT;writing-mode:lr-tb;fill:#000000;fill-opacity:1;fill-rule:nonzero;stroke:none"
           id="text908"><tspan
             x="0 9.9960938 16.669922 20.003906 26.677734 30.011719 38.677734 45.351562 48.685547"
             y="0"
             sodipodi:role="line"
             id="tspan906">Meta Data</tspan></text></g><g
         id="g910"
         transform="matrix(2.9941626,0,0,2.9941626,1.4970813,1.4970813)"><path
           d="m 247,420 0.5,35.5 -0.41,28.13"
           style="fill:none;stroke:#000000;stroke-width:1;stroke-linecap:butt;stroke-linejoin:miter;stroke-miterlimit:10;stroke-dasharray:none;stroke-opacity:1"
           id="path912" /><path
           d="m 247.02,488.88 -3.4,-7.05001 3.47,1.80001 3.53,-1.70001 z"
           style="fill:#000000;fill-opacity:1;fill-rule:nonzero;stroke:none"
           id="path914" /><path
           d="m 247.02,488.88 -3.4,-7.05001 3.47,1.80001 3.53,-1.70001 z"
           style="fill:none;stroke:#000000;stroke-width:1;stroke-linecap:butt;stroke-linejoin:miter;stroke-miterlimit:10;stroke-dasharray:none;stroke-opacity:1"
           id="path916" /><path
           d="m 247,510 v 20 -10 13.63"
           style="fill:none;stroke:#000000;stroke-width:1;stroke-linecap:butt;stroke-linejoin:miter;stroke-miterlimit:10;stroke-dasharray:none;stroke-opacity:1"
           id="path918" /><path
           d="m 247,538.88 -3.5,-7 3.5,1.75 3.5,-1.75 z"
           style="fill:#000000;fill-opacity:1;fill-rule:nonzero;stroke:none"
           id="path920" /><path
           d="m 247,538.88 -3.5,-7 3.5,1.75 3.5,-1.75 z"
           style="fill:none;stroke:#000000;stroke-width:1;stroke-linecap:butt;stroke-linejoin:miter;stroke-miterlimit:10;stroke-dasharray:none;stroke-opacity:1"
           id="path922" /><path
           d="m 218,410 h 58 c 0.49725,0 0.97562,0.0951 1.43506,0.28546 0.45941,0.19028 0.86493,0.46124 1.21658,0.8129 0.35163,0.35159 0.62259,0.75711 0.8129,1.21655 0.19031,0.45941 0.28546,0.93778 0.28546,1.43509 v 17.5 c 0,0.49725 -0.0951,0.97559 -0.28546,1.435 -0.19031,0.45944 -0.46127,0.86496 -0.8129,1.21661 -0.35165,0.35159 -0.75717,0.62256 -1.21658,0.81287 C 276.97562,434.90479 276.49725,434.99997 276,435 h -58 c -0.4973,-3e-5 -0.97566,-0.0952 -1.43509,-0.28552 -0.45943,-0.19031 -0.86496,-0.46128 -1.21658,-0.81287 -0.35164,-0.35165 -0.62261,-0.75717 -0.8129,-1.21661 -0.19031,-0.45941 -0.28545,-0.93775 -0.28543,-1.435 v -17.5 c -2e-5,-0.49731 0.0951,-0.97568 0.28542,-1.43509 0.19029,-0.45944 0.46127,-0.86496 0.81291,-1.21655 0.35162,-0.35166 0.75715,-0.62262 1.21658,-0.81293 C 217.02434,410.09515 217.5027,410 218,410 Z"
           style="fill:#c2d0dc;fill-opacity:1;fill-rule:nonzero;stroke:none"
           id="path924" /><path
           d="m 218,410 h 58 c 0.49725,0 0.97562,0.0951 1.43506,0.28546 0.45941,0.19028 0.86493,0.46124 1.21658,0.8129 0.35163,0.35159 0.62259,0.75711 0.8129,1.21655 0.19031,0.45941 0.28546,0.93778 0.28546,1.43509 v 17.5 c 0,0.49725 -0.0951,0.97559 -0.28546,1.435 -0.19031,0.45944 -0.46127,0.86496 -0.8129,1.21661 -0.35165,0.35159 -0.75717,0.62256 -1.21658,0.81287 C 276.97562,434.90479 276.49725,434.99997 276,435 h -58 c -0.4973,-3e-5 -0.97566,-0.0952 -1.43509,-0.28552 -0.45943,-0.19031 -0.86496,-0.46128 -1.21658,-0.81287 -0.35164,-0.35165 -0.62261,-0.75717 -0.8129,-1.21661 -0.19031,-0.45941 -0.28545,-0.93775 -0.28543,-1.435 v -17.5 c -2e-5,-0.49731 0.0951,-0.97568 0.28542,-1.43509 0.19029,-0.45944 0.46127,-0.86496 0.81291,-1.21655 0.35162,-0.35166 0.75715,-0.62262 1.21658,-0.81293 C 217.02434,410.09515 217.5027,410 218,410 Z"
           style="fill:none;stroke:#2f586e;stroke-width:1;stroke-linecap:butt;stroke-linejoin:miter;stroke-miterlimit:10;stroke-dasharray:none;stroke-opacity:1"
           id="path926" /></g><g
         id="g928"
         transform="scale(2.9941626)"><text
           xml:space="preserve"
           transform="translate(227.98438,427)"
           style="font-variant:normal;font-weight:normal;font-size:12px;font-family:Arial;-inkscape-font-specification:ArialMT;writing-mode:lr-tb;fill:#000000;fill-opacity:1;fill-rule:nonzero;stroke:none"
           id="text932"><tspan
             x="0 8.6660156 15.339844 22.013672 28.013672 34.6875"
             y="0"
             sodipodi:role="line"
             id="tspan930">Concat</tspan></text></g><g
         id="g934"
         transform="matrix(2.9941626,0,0,2.9941626,1.4970813,1.4970813)"><path
           d="m 177,500 h -56 v 33.63"
           style="fill:none;stroke:#000000;stroke-width:1;stroke-linecap:butt;stroke-linejoin:miter;stroke-miterlimit:10;stroke-dasharray:none;stroke-opacity:1"
           id="path936" /><path
           d="m 121,538.88 -3.5,-7 3.5,1.75 3.5,-1.75 z"
           style="fill:#000000;fill-opacity:1;fill-rule:nonzero;stroke:none"
           id="path938" /><path
           d="m 121,538.88 -3.5,-7 3.5,1.75 3.5,-1.75 z"
           style="fill:none;stroke:#000000;stroke-width:1;stroke-linecap:butt;stroke-linejoin:miter;stroke-miterlimit:10;stroke-dasharray:none;stroke-opacity:1"
           id="path940" /><path
           d="m 247,560 v 20 l -0.03,-1.37"
           style="fill:none;stroke:#000000;stroke-width:1;stroke-linecap:butt;stroke-linejoin:miter;stroke-miterlimit:10;stroke-dasharray:none;stroke-opacity:1"
           id="path942" /><path
           d="m 247.08,583.88 -3.64,-6.92999 3.53,1.67999 3.47,-1.82 z"
           style="fill:#000000;fill-opacity:1;fill-rule:nonzero;stroke:none"
           id="path944" /><path
           d="m 247.08,583.88 -3.64,-6.92999 3.53,1.67999 3.47,-1.82 z"
           style="fill:none;stroke:#000000;stroke-width:1;stroke-linecap:butt;stroke-linejoin:miter;stroke-miterlimit:10;stroke-dasharray:none;stroke-opacity:1"
           id="path946" /><path
           d="m 317,500 h 46.5 v 32.63"
           style="fill:none;stroke:#000000;stroke-width:1;stroke-linecap:butt;stroke-linejoin:miter;stroke-miterlimit:10;stroke-dasharray:none;stroke-opacity:1"
           id="path948" /><path
           d="m 363.5,537.88 -3.5,-7 3.5,1.75 3.5,-1.75 z"
           style="fill:#000000;fill-opacity:1;fill-rule:nonzero;stroke:none"
           id="path950" /><path
           d="m 363.5,537.88 -3.5,-7 3.5,1.75 3.5,-1.75 z"
           style="fill:none;stroke:#000000;stroke-width:1;stroke-linecap:butt;stroke-linejoin:miter;stroke-miterlimit:10;stroke-dasharray:none;stroke-opacity:1"
           id="path952" /><path
           d="m 207.75,585 h 78.5 c 0.59671,0 1.17075,0.11414 1.72205,0.34247 0.5513,0.22839 1.03796,0.55359 1.45993,0.97552 0.42193,0.42194 0.7471,0.90857 0.97546,1.4599 0.22836,0.55133 0.34253,1.12537 0.34256,1.72211 v 21 c -3e-5,0.59668 -0.1142,1.17065 -0.34256,1.72198 -0.22836,0.55134 -0.55353,1.03797 -0.97546,1.4599 -0.42197,0.42194 -0.90863,0.74708 -1.45993,0.97553 -0.5513,0.22833 -1.12534,0.34253 -1.72205,0.34259 h -78.5 c -0.59676,-6e-5 -1.17079,-0.11426 -1.72211,-0.34259 -0.5513,-0.22845 -1.03793,-0.55359 -1.45988,-0.97553 -0.42198,-0.42193 -0.74715,-0.90856 -0.9755,-1.4599 -0.22836,-0.55133 -0.34253,-1.1253 -0.34251,-1.72198 v -21 c -2e-5,-0.59674 0.11415,-1.17078 0.34251,-1.72211 0.22835,-0.55133 0.55352,-1.03796 0.9755,-1.4599 0.42195,-0.42193 0.90858,-0.74713 1.45988,-0.97552 C 206.57921,585.11414 207.15324,585 207.75,585 Z"
           style="fill:#c2d0dc;fill-opacity:1;fill-rule:nonzero;stroke:none"
           id="path954" /><path
           d="m 207.75,585 h 78.5 c 0.59671,0 1.17075,0.11414 1.72205,0.34247 0.5513,0.22839 1.03796,0.55359 1.45993,0.97552 0.42193,0.42194 0.7471,0.90857 0.97546,1.4599 0.22836,0.55133 0.34253,1.12537 0.34256,1.72211 v 21 c -3e-5,0.59668 -0.1142,1.17065 -0.34256,1.72198 -0.22836,0.55134 -0.55353,1.03797 -0.97546,1.4599 -0.42197,0.42194 -0.90863,0.74708 -1.45993,0.97553 -0.5513,0.22833 -1.12534,0.34253 -1.72205,0.34259 h -78.5 c -0.59676,-6e-5 -1.17079,-0.11426 -1.72211,-0.34259 -0.5513,-0.22845 -1.03793,-0.55359 -1.45988,-0.97553 -0.42198,-0.42193 -0.74715,-0.90856 -0.9755,-1.4599 -0.22836,-0.55133 -0.34253,-1.1253 -0.34251,-1.72198 v -21 c -2e-5,-0.59674 0.11415,-1.17078 0.34251,-1.72211 0.22835,-0.55133 0.55352,-1.03796 0.9755,-1.4599 0.42195,-0.42193 0.90858,-0.74713 1.45988,-0.97552 C 206.57921,585.11414 207.15324,585 207.75,585 Z"
           style="fill:none;stroke:#2f586e;stroke-width:1;stroke-linecap:butt;stroke-linejoin:miter;stroke-miterlimit:10;stroke-dasharray:none;stroke-opacity:1"
           id="path956" /></g><g
         id="g958"
         transform="scale(2.9941626)"><text
           xml:space="preserve"
           transform="translate(219.98438,604)"
           style="font-variant:normal;font-weight:normal;font-size:12px;font-family:Arial;-inkscape-font-specification:ArialMT;writing-mode:lr-tb;fill:#000000;fill-opacity:1;fill-rule:nonzero;stroke:none"
           id="text962"><tspan
             x="0 8.6660156 11.332031 17.332031 24.005859 28.001953 34.675781 38.009766 40.675781 47.349609"
             y="0"
             sodipodi:role="line"
             id="tspan960">Ulceration</tspan></text></g><g
         id="g964"
         transform="matrix(2.9941626,0,0,2.9941626,1.4970813,1.4970813)"><path
           d="m 68,330 h 144 c 0.39781,0 0.78049,0.0761 1.14803,0.22833 0.36753,0.15225 0.69197,0.36902 0.97328,0.6503 0.28129,0.28128 0.49806,0.60571 0.65031,0.97327 0.15224,0.36752 0.22836,0.75024 0.22838,1.1481 v 14 c -2e-5,0.3978 -0.0761,0.78049 -0.22838,1.14801 -0.15225,0.36752 -0.36902,0.69196 -0.65031,0.9733 -0.28131,0.28128 -0.60575,0.49804 -0.97328,0.65027 C 212.78049,349.92383 212.39781,349.99997 212,350 H 68 c -0.397835,-3e-5 -0.780518,-0.0762 -1.148064,-0.22842 -0.367538,-0.15223 -0.691955,-0.36899 -0.973259,-0.65027 -0.281303,-0.28134 -0.498077,-0.60578 -0.650322,-0.9733 C 65.076111,347.78049 64.999992,347.3978 65,347 v -14 c -8e-6,-0.39786 0.07611,-0.78058 0.228355,-1.1481 0.152245,-0.36756 0.369019,-0.69199 0.650322,-0.97327 0.281304,-0.28128 0.605721,-0.49805 0.973267,-0.6503 C 67.219482,330.07611 67.602165,330 68,330 Z"
           style="fill:#c2d0dc;fill-opacity:1;fill-rule:nonzero;stroke:none"
           id="path966" /><path
           d="m 68,330 h 144 c 0.39781,0 0.78049,0.0761 1.14803,0.22833 0.36753,0.15225 0.69197,0.36902 0.97328,0.6503 0.28129,0.28128 0.49806,0.60571 0.65031,0.97327 0.15224,0.36752 0.22836,0.75024 0.22838,1.1481 v 14 c -2e-5,0.3978 -0.0761,0.78049 -0.22838,1.14801 -0.15225,0.36752 -0.36902,0.69196 -0.65031,0.9733 -0.28131,0.28128 -0.60575,0.49804 -0.97328,0.65027 C 212.78049,349.92383 212.39781,349.99997 212,350 H 68 c -0.397835,-3e-5 -0.780518,-0.0762 -1.148064,-0.22842 -0.367538,-0.15223 -0.691955,-0.36899 -0.973259,-0.65027 -0.281303,-0.28134 -0.498077,-0.60578 -0.650322,-0.9733 C 65.076111,347.78049 64.999992,347.3978 65,347 v -14 c -8e-6,-0.39786 0.07611,-0.78058 0.228355,-1.1481 0.152245,-0.36756 0.369019,-0.69199 0.650322,-0.97327 0.281304,-0.28128 0.605721,-0.49805 0.973267,-0.6503 C 67.219482,330.07611 67.602165,330 68,330 Z"
           style="fill:none;stroke:#2f586e;stroke-width:1;stroke-linecap:butt;stroke-linejoin:miter;stroke-miterlimit:10;stroke-dasharray:none;stroke-opacity:1"
           id="path968" /></g><g
         id="g970"
         transform="scale(2.9941626)"><text
           xml:space="preserve"
           transform="translate(69.625,344)"
           style="font-variant:normal;font-weight:normal;font-size:12px;font-family:Arial;-inkscape-font-specification:ArialMT;writing-mode:lr-tb;fill:#000000;fill-opacity:1;fill-rule:nonzero;stroke:none"
           id="text974"><tspan
             x="0 7.3300781 15.996094 19.330078 23.326172 30 36.673828 43.347656 50.021484 54.017578 57.351562 60.685547 69.351562 76.025391 82.699219 91.365234 94.699219 98.033203 106.69922 110.69531 117.36914 124.04297 130.7168 137.39062"
             y="0"
             sodipodi:role="line"
             id="tspan972">FC (1024), ReLU, Dropout</tspan></text></g><g
         id="g976"
         transform="matrix(2.9941626,0,0,2.9941626,1.4970813,1.4970813)"><path
           d="m 76,121.5 h 3 v 1 h -3 z m 6,0 h 3 v 1 h -3 z m 6,0 h 3 v 1 h -3 z m 6,0 h 3 v 1 h -3 z m 6,0 h 3 v 1 h -3 z m 6,0 h 3 v 1 h -3 z m 6,0 h 3 v 1 h -3 z m 6,0 h 3 v 1 h -3 z m 6,0 h 3 v 1 h -3 z m 6,0 h 3 v 1 h -3 z m 6,0 h 3 v 1 h -3 z m 6,0 h 3 v 1 h -3 z m 6,0 h 3 v 1 h -3 z m 6,0 h 3 v 1 h -3 z m 6,0 h 3 v 1 h -3 z m 6,0 h 3 v 1 h -3 z m 6,0 h 3 v 1 h -3 z m 6,0 h 3 v 1 h -3 z m 6,0 h 3 v 1 h -3 z m 6,0 h 3 v 1 h -3 z m 6,0 h 3 v 1 h -3 z m 6,0 h 3 v 1 h -3 z m 6,0 h 2.5 v 1.5 h -1 v -1 h 0.5 v 0.5 h -2 z m 2.5,4.5 v 3 h -1 v -3 z m 0,6 v 3 h -1 v -3 z m 0,6 v 3 h -1 v -3 z m 0,6 v 3 h -1 v -3 z m 0,6 v 3 h -1 v -3 z m 0,6 v 3 h -1 v -3 z m 0,6 v 3 h -1 v -3 z m 0,6 v 3 h -1 v -3 z m 0,6 v 3 h -1 v -3 z m 0,6 v 3 h -1 v -3 z m 0,6 v 3 h -1 v -3 z m 0,6 v 3 h -1 v -3 z m 0,6 v 3 h -1 v -3 z m 0,6 v 3 h -1 v -3 z m 0,6 v 3 h -1 v -3 z m 0,6 v 3 h -1 v -3 z m 0,6 v 3 h -1 v -3 z m 0,6 v 3 h -1 v -3 z m 0,6 v 3 h -1 v -3 z m 0,6 v 3 h -1 v -3 z m 0,6 v 3 h -1 v -3 z m 0,6 v 3 h -1 v -3 z m 0,6 v 3 h -1 v -3 z m 0,6 v 3 h -1 v -3 z m 0,6 v 3 h -1 v -3 z m 0,6 v 3 h -1 v -3 z m 0,6 v 3 h -1 v -3 z m 0,6 v 3 h -1 v -3 z m 0,6 v 3 h -1 v -3 z m 0,6 v 2.5 H 209 v -1 h 1 v 0.5 h -0.5 v -2 z m -4.5,2.5 h -3 v -1 h 3 z m -6,0 h -3 v -1 h 3 z m -6,0 h -3 v -1 h 3 z m -6,0 h -3 v -1 h 3 z m -6,0 h -3 v -1 h 3 z m -6,0 h -3 v -1 h 3 z m -6,0 h -3 v -1 h 3 z m -6,0 h -3 v -1 h 3 z m -6,0 h -3 v -1 h 3 z m -6,0 h -3 v -1 h 3 z m -6,0 h -3 v -1 h 3 z m -6,0 h -3 v -1 h 3 z m -6,0 h -3 v -1 h 3 z m -6,0 h -3 v -1 h 3 z m -6,0 h -3 v -1 h 3 z m -6,0 h -3 v -1 h 3 z m -6,0 h -2.99999 v -1 H 110 Z m -6,0 h -3 v -1 h 3 z m -6,0 h -3 v -1 h 3 z m -6,0 h -3 v -1 h 3 z m -6,0 h -3 v -1 h 3 z m -6,0 h -3 v -1 h 3 z m -6,0 h -3 v -1 h 3 z M 69.5,300 v -3 h 1 v 3 z m 0,-6 v -3 h 1 v 3 z m 0,-6 v -3 h 1 v 3 z m 0,-6 v -3 h 1 v 3 z m 0,-6 v -3 h 1 v 3 z m 0,-6 v -3 h 1 v 3 z m 0,-6 v -3 h 1 v 3 z m 0,-6 v -3 h 1 v 3 z m 0,-6 v -3 h 1 v 3 z m 0,-6 v -3 h 1 v 3 z m 0,-6 v -3 h 1 v 3 z m 0,-6 v -3 h 1 v 3 z m 0,-6 v -3 h 1 v 3 z m 0,-6 v -3 h 1 v 3 z m 0,-6 v -3 h 1 v 3 z m 0,-6 v -3 h 1 v 3 z m 0,-6 v -3 h 1 v 3 z m 0,-6 v -3 h 1 v 3 z m 0,-6 v -3 h 1 v 3 z m 0,-6 v -3 h 1 v 3 z m 0,-6 v -3 h 1 v 3 z m 0,-6 v -3 h 1 v 3 z m 0,-6 v -3 h 1 v 3 z m 0,-6 v -3 h 1 v 3 z m 0,-6 v -3 h 1 v 3 z m 0,-6 v -3 h 1 v 3 z m 0,-6 v -3 h 1 v 3 z m 0,-6 v -3 h 1 v 3 z m 0,-6 v -3 h 1 v 3 z m 0,-6 v -3 h 1 v 3 z m 0.5,-4.5 h 3 v 1 h -3 z"
           style="fill:#2f586e;fill-opacity:1;fill-rule:nonzero;stroke:none"
           id="path978" /><path
           d="M 282.25,340 H 425 c 0.3978,0 0.78049,0.0761 1.14804,0.2283 0.36752,0.15225 0.69193,0.36902 0.97327,0.65036 0.28128,0.28131 0.49804,0.60575 0.65027,0.97327 0.15225,0.36755 0.22839,0.75024 0.22842,1.14807 v 14 c -3e-5,0.3978 -0.0762,0.78049 -0.22842,1.14801 -0.15223,0.36755 -0.36899,0.69199 -0.65027,0.9733 -0.28134,0.28128 -0.60578,0.49804 -0.9733,0.6503 C 425.78049,359.92386 425.3978,360 425,360 H 282.25 c -0.39786,0 -0.78055,-0.0761 -1.14807,-0.22836 -0.36755,-0.15226 -0.69199,-0.36905 -0.97327,-0.65033 -0.28131,-0.28131 -0.49808,-0.60575 -0.65033,-0.9733 C 279.32608,357.78049 279.24997,357.3978 279.25,357 v -14 c -3e-5,-0.39783 0.0761,-0.78052 0.22833,-1.14807 0.15225,-0.36752 0.36902,-0.69196 0.65033,-0.97327 0.28128,-0.28134 0.60572,-0.49811 0.97327,-0.65036 C 281.46945,340.07611 281.85214,340 282.25,340 Z"
           style="fill:#c2d0dc;fill-opacity:1;fill-rule:nonzero;stroke:none"
           id="path980" /><path
           d="M 282.25,340 H 425 c 0.3978,0 0.78049,0.0761 1.14804,0.2283 0.36752,0.15225 0.69193,0.36902 0.97327,0.65036 0.28128,0.28131 0.49804,0.60575 0.65027,0.97327 0.15225,0.36755 0.22839,0.75024 0.22842,1.14807 v 14 c -3e-5,0.3978 -0.0762,0.78049 -0.22842,1.14801 -0.15223,0.36755 -0.36899,0.69199 -0.65027,0.9733 -0.28134,0.28128 -0.60578,0.49804 -0.9733,0.6503 C 425.78049,359.92386 425.3978,360 425,360 H 282.25 c -0.39786,0 -0.78055,-0.0761 -1.14807,-0.22836 -0.36755,-0.15226 -0.69199,-0.36905 -0.97327,-0.65033 -0.28131,-0.28131 -0.49808,-0.60575 -0.65033,-0.9733 C 279.32608,357.78049 279.24997,357.3978 279.25,357 v -14 c -3e-5,-0.39783 0.0761,-0.78052 0.22833,-1.14807 0.15225,-0.36752 0.36902,-0.69196 0.65033,-0.97327 0.28128,-0.28134 0.60572,-0.49811 0.97327,-0.65036 C 281.46945,340.07611 281.85214,340 282.25,340 Z"
           style="fill:none;stroke:#2f586e;stroke-width:1;stroke-linecap:butt;stroke-linejoin:miter;stroke-miterlimit:10;stroke-dasharray:none;stroke-opacity:1"
           id="path982" /></g><g
         id="g984"
         transform="scale(2.9941626)"><text
           xml:space="preserve"
           transform="translate(289.79688,354)"
           style="font-variant:normal;font-weight:normal;font-size:12px;font-family:Arial;-inkscape-font-specification:ArialMT;writing-mode:lr-tb;fill:#000000;fill-opacity:1;fill-rule:nonzero;stroke:none"
           id="text988"><tspan
             x="0 7.3300781 15.996094 19.330078 23.326172 30 36.673828 40.669922 44.003906 47.337891 56.003906 62.677734 69.351562 78.017578 81.351562 84.685547 93.351562 97.347656 104.02148 110.69531 117.36914 124.04297"
             y="0"
             sodipodi:role="line"
             id="tspan986">FC (64), ReLU, Dropout</tspan></text></g><g
         id="g990"
         transform="matrix(2.9941626,0,0,2.9941626,1.4970813,1.4970813)"><path
           d="m 363.5,559 v 20 l -0.01,-0.37"
           style="fill:none;stroke:#000000;stroke-width:1;stroke-linecap:butt;stroke-linejoin:miter;stroke-miterlimit:10;stroke-dasharray:none;stroke-opacity:1"
           id="path992" /><path
           d="m 363.57999,583.88 -3.60999,-6.94 3.51999,1.69 3.47,-1.80999 z"
           style="fill:#000000;fill-opacity:1;fill-rule:nonzero;stroke:none"
           id="path994" /><path
           d="m 363.57999,583.88 -3.60999,-6.94 3.51999,1.69 3.47,-1.80999 z"
           style="fill:none;stroke:#000000;stroke-width:1;stroke-linecap:butt;stroke-linejoin:miter;stroke-miterlimit:10;stroke-dasharray:none;stroke-opacity:1"
           id="path996" /><path
           d="m 326.5,539 h 74 c 0.39783,0 0.78052,0.0761 1.14804,0.22833 0.36752,0.15222 0.69196,0.36902 0.97327,0.65033 0.28128,0.28125 0.49804,0.60565 0.6503,0.97321 0.15225,0.36755 0.22836,0.75024 0.22839,1.14813 v 14 c -3e-5,0.39777 -0.0761,0.78046 -0.22839,1.14801 -0.15226,0.36749 -0.36902,0.69196 -0.6503,0.97327 -0.28131,0.28131 -0.60575,0.49804 -0.9733,0.65027 C 401.28049,558.92383 400.89783,559 400.5,559 h -74 c -0.39786,0 -0.78055,-0.0762 -1.1481,-0.22845 -0.36752,-0.15223 -0.69196,-0.36896 -0.97324,-0.65027 -0.28134,-0.28131 -0.49811,-0.60578 -0.65036,-0.97327 C 323.57608,556.78046 323.49997,556.39777 323.5,556 v -14 c -3e-5,-0.39789 0.0761,-0.78058 0.2283,-1.14813 0.15225,-0.36756 0.36902,-0.69196 0.65036,-0.97321 0.28128,-0.28131 0.60572,-0.49811 0.97324,-0.65033 C 325.71945,539.07611 326.10214,539 326.5,539 Z"
           style="fill:#c2d0dc;fill-opacity:1;fill-rule:nonzero;stroke:none"
           id="path998" /><path
           d="m 326.5,539 h 74 c 0.39783,0 0.78052,0.0761 1.14804,0.22833 0.36752,0.15222 0.69196,0.36902 0.97327,0.65033 0.28128,0.28125 0.49804,0.60565 0.6503,0.97321 0.15225,0.36755 0.22836,0.75024 0.22839,1.14813 v 14 c -3e-5,0.39777 -0.0761,0.78046 -0.22839,1.14801 -0.15226,0.36749 -0.36902,0.69196 -0.6503,0.97327 -0.28131,0.28131 -0.60575,0.49804 -0.9733,0.65027 C 401.28049,558.92383 400.89783,559 400.5,559 h -74 c -0.39786,0 -0.78055,-0.0762 -1.1481,-0.22845 -0.36752,-0.15223 -0.69196,-0.36896 -0.97324,-0.65027 -0.28134,-0.28131 -0.49811,-0.60578 -0.65036,-0.97327 C 323.57608,556.78046 323.49997,556.39777 323.5,556 v -14 c -3e-5,-0.39789 0.0761,-0.78058 0.2283,-1.14813 0.15225,-0.36756 0.36902,-0.69196 0.65036,-0.97321 0.28128,-0.28131 0.60572,-0.49811 0.97324,-0.65033 C 325.71945,539.07611 326.10214,539 326.5,539 Z"
           style="fill:none;stroke:#2f586e;stroke-width:1;stroke-linecap:butt;stroke-linejoin:miter;stroke-miterlimit:10;stroke-dasharray:none;stroke-opacity:1"
           id="path1000" /></g><g
         id="g1002"
         transform="scale(2.9941626)"><text
           xml:space="preserve"
           transform="translate(347,553)"
           style="font-variant:normal;font-weight:normal;font-size:12px;font-family:Arial;-inkscape-font-specification:ArialMT;writing-mode:lr-tb;fill:#000000;fill-opacity:1;fill-rule:nonzero;stroke:none"
           id="text1006"><tspan
             x="0 7.3300781 15.996094 19.330078 23.326172 30"
             y="0"
             sodipodi:role="line"
             id="tspan1004">FC (1)</tspan></text></g><g
         id="g1008"
         transform="matrix(2.9941626,0,0,2.9941626,1.4970813,1.4970813)"><path
           d="m 180,470 h 134 c 0.3978,0 0.78049,0.0761 1.14801,0.22833 0.36752,0.15222 0.69196,0.36899 0.97327,0.65033 0.28128,0.28128 0.49804,0.60572 0.6503,0.97324 0.15225,0.36755 0.22839,0.75024 0.22842,1.1481 v 14 c -3e-5,0.3978 -0.0762,0.78043 -0.22842,1.14795 -0.15226,0.36755 -0.36902,0.69199 -0.6503,0.97333 -0.28131,0.28128 -0.60575,0.49804 -0.97327,0.6503 C 314.78049,489.92383 314.3978,489.99997 314,490 H 180 c -0.39784,-3e-5 -0.78053,-0.0762 -1.14807,-0.22842 -0.36754,-0.15226 -0.69197,-0.36902 -0.97327,-0.6503 -0.28131,-0.28134 -0.49809,-0.60578 -0.65033,-0.97333 C 177.0761,487.78043 176.99998,487.3978 177,487 v -14 c -2e-5,-0.39786 0.0761,-0.78055 0.22833,-1.1481 0.15224,-0.36752 0.36902,-0.69196 0.65033,-0.97324 0.2813,-0.28134 0.60573,-0.49811 0.97327,-0.65033 C 179.21947,470.07611 179.60216,470 180,470 Z"
           style="fill:#c2d0dc;fill-opacity:1;fill-rule:nonzero;stroke:none"
           id="path1010" /><path
           d="m 180,470 h 134 c 0.3978,0 0.78049,0.0761 1.14801,0.22833 0.36752,0.15222 0.69196,0.36899 0.97327,0.65033 0.28128,0.28128 0.49804,0.60572 0.6503,0.97324 0.15225,0.36755 0.22839,0.75024 0.22842,1.1481 v 14 c -3e-5,0.3978 -0.0762,0.78043 -0.22842,1.14795 -0.15226,0.36755 -0.36902,0.69199 -0.6503,0.97333 -0.28131,0.28128 -0.60575,0.49804 -0.97327,0.6503 C 314.78049,489.92383 314.3978,489.99997 314,490 H 180 c -0.39784,-3e-5 -0.78053,-0.0762 -1.14807,-0.22842 -0.36754,-0.15226 -0.69197,-0.36902 -0.97327,-0.6503 -0.28131,-0.28134 -0.49809,-0.60578 -0.65033,-0.97333 C 177.0761,487.78043 176.99998,487.3978 177,487 v -14 c -2e-5,-0.39786 0.0761,-0.78055 0.22833,-1.1481 0.15224,-0.36752 0.36902,-0.69196 0.65033,-0.97324 0.2813,-0.28134 0.60573,-0.49811 0.97327,-0.65033 C 179.21947,470.07611 179.60216,470 180,470 Z"
           style="fill:none;stroke:#2f586e;stroke-width:1;stroke-linecap:butt;stroke-linejoin:miter;stroke-miterlimit:10;stroke-dasharray:none;stroke-opacity:1"
           id="path1012" /></g><g
         id="g1014"
         transform="scale(2.9941626)"><text
           xml:space="preserve"
           transform="translate(179.96875,484)"
           style="font-variant:normal;font-weight:normal;font-size:12px;font-family:Arial;-inkscape-font-specification:ArialMT;writing-mode:lr-tb;fill:#000000;fill-opacity:1;fill-rule:nonzero;stroke:none"
           id="text1018"><tspan
             x="0 7.3300781 15.996094 19.330078 23.326172 30 36.673828 43.347656 47.34375 50.677734 54.011719 62.677734 69.351562 76.025391 84.691406 88.025391 91.359375 100.02539 104.02148 110.69531 117.36914 124.04297 130.7168"
             y="0"
             sodipodi:role="line"
             id="tspan1016">FC (512), ReLU, Dropout</tspan></text></g><g
         id="g1020"
         transform="matrix(2.9941626,0,0,2.9941626,1.4970813,1.4970813)"><path
           d="m 68,350 h 144 c 0.39781,0 0.78049,0.0761 1.14803,0.22833 0.36753,0.15225 0.69197,0.36902 0.97328,0.65033 0.28129,0.28128 0.49806,0.60572 0.65031,0.97327 0.15224,0.36752 0.22836,0.75021 0.22838,1.14807 v 14 c -2e-5,0.3978 -0.0761,0.78046 -0.22838,1.14801 -0.15225,0.36752 -0.36902,0.69196 -0.65031,0.9733 -0.28131,0.28128 -0.60575,0.49804 -0.97328,0.65027 C 212.78049,369.92383 212.39781,369.99997 212,370 H 68 c -0.397835,-3e-5 -0.780518,-0.0761 -1.148064,-0.22836 -0.367538,-0.15226 -0.691955,-0.36905 -0.973259,-0.65033 -0.281303,-0.28134 -0.498077,-0.60578 -0.650322,-0.9733 C 65.076111,367.78046 64.999992,367.3978 65,367 v -14 c -8e-6,-0.39786 0.07611,-0.78055 0.228355,-1.14807 0.152245,-0.36755 0.369019,-0.69199 0.650322,-0.97327 0.281304,-0.28131 0.605721,-0.49808 0.973267,-0.65033 C 67.219482,350.07611 67.602165,350 68,350 Z"
           style="fill:#c2d0dc;fill-opacity:1;fill-rule:nonzero;stroke:none"
           id="path1022" /><path
           d="m 68,350 h 144 c 0.39781,0 0.78049,0.0761 1.14803,0.22833 0.36753,0.15225 0.69197,0.36902 0.97328,0.65033 0.28129,0.28128 0.49806,0.60572 0.65031,0.97327 0.15224,0.36752 0.22836,0.75021 0.22838,1.14807 v 14 c -2e-5,0.3978 -0.0761,0.78046 -0.22838,1.14801 -0.15225,0.36752 -0.36902,0.69196 -0.65031,0.9733 -0.28131,0.28128 -0.60575,0.49804 -0.97328,0.65027 C 212.78049,369.92383 212.39781,369.99997 212,370 H 68 c -0.397835,-3e-5 -0.780518,-0.0761 -1.148064,-0.22836 -0.367538,-0.15226 -0.691955,-0.36905 -0.973259,-0.65033 -0.281303,-0.28134 -0.498077,-0.60578 -0.650322,-0.9733 C 65.076111,367.78046 64.999992,367.3978 65,367 v -14 c -8e-6,-0.39786 0.07611,-0.78055 0.228355,-1.14807 0.152245,-0.36755 0.369019,-0.69199 0.650322,-0.97327 0.281304,-0.28131 0.605721,-0.49808 0.973267,-0.65033 C 67.219482,350.07611 67.602165,350 68,350 Z"
           style="fill:none;stroke:#2f586e;stroke-width:1;stroke-linecap:butt;stroke-linejoin:miter;stroke-miterlimit:10;stroke-dasharray:none;stroke-opacity:1"
           id="path1024" /></g><g
         id="g1026"
         transform="scale(2.9941626)"><text
           xml:space="preserve"
           transform="translate(69.625,364)"
           style="font-variant:normal;font-weight:normal;font-size:12px;font-family:Arial;-inkscape-font-specification:ArialMT;writing-mode:lr-tb;fill:#000000;fill-opacity:1;fill-rule:nonzero;stroke:none"
           id="text1030"><tspan
             x="0 7.3300781 15.996094 19.330078 23.326172 30 36.673828 43.347656 50.021484 54.017578 57.351562 60.685547 69.351562 76.025391 82.699219 91.365234 94.699219 98.033203 106.69922 110.69531 117.36914 124.04297 130.7168 137.39062"
             y="0"
             sodipodi:role="line"
             id="tspan1028">FC (1024), ReLU, Dropout</tspan></text></g><g
         id="g1032"
         transform="matrix(2.9941626,0,0,2.9941626,1.4970813,1.4970813)"><path
           d="m 140,390 v 32.5 h 67.88"
           style="fill:none;stroke:#000000;stroke-width:1;stroke-linecap:butt;stroke-linejoin:miter;stroke-miterlimit:10;stroke-dasharray:none;stroke-opacity:1"
           id="path1034" /><path
           d="m 213.13,422.5 -7,3.5 1.75,-3.5 -1.75,-3.5 z"
           style="fill:#000000;fill-opacity:1;fill-rule:nonzero;stroke:none"
           id="path1036" /><path
           d="m 213.13,422.5 -7,3.5 1.75,-3.5 -1.75,-3.5 z"
           style="fill:none;stroke:#000000;stroke-width:1;stroke-linecap:butt;stroke-linejoin:miter;stroke-miterlimit:10;stroke-dasharray:none;stroke-opacity:1"
           id="path1038" /><path
           d="m 68,370 h 144 c 0.39781,0 0.78049,0.0761 1.14803,0.22833 0.36753,0.15225 0.69197,0.36902 0.97328,0.65033 0.28129,0.28128 0.49806,0.60568 0.65031,0.97324 0.15224,0.36755 0.22836,0.75024 0.22838,1.1481 v 14 c -2e-5,0.3978 -0.0761,0.78046 -0.22838,1.14798 -0.15225,0.36752 -0.36902,0.69196 -0.65031,0.9733 -0.28131,0.28128 -0.60575,0.49807 -0.97328,0.65033 C 212.78049,389.92383 212.39781,389.99997 212,390 H 68 c -0.397835,-3e-5 -0.780518,-0.0762 -1.148064,-0.22839 -0.367538,-0.15226 -0.691955,-0.36905 -0.973259,-0.65033 -0.281303,-0.28134 -0.498077,-0.60578 -0.650322,-0.9733 C 65.076111,387.78046 64.999992,387.3978 65,387 v -14 c -8e-6,-0.39786 0.07611,-0.78055 0.228355,-1.1481 0.152245,-0.36756 0.369019,-0.69196 0.650322,-0.97324 0.281304,-0.28131 0.605721,-0.49808 0.973267,-0.65033 C 67.219482,370.07611 67.602165,370 68,370 Z"
           style="fill:#c2d0dc;fill-opacity:1;fill-rule:nonzero;stroke:none"
           id="path1040" /><path
           d="m 68,370 h 144 c 0.39781,0 0.78049,0.0761 1.14803,0.22833 0.36753,0.15225 0.69197,0.36902 0.97328,0.65033 0.28129,0.28128 0.49806,0.60568 0.65031,0.97324 0.15224,0.36755 0.22836,0.75024 0.22838,1.1481 v 14 c -2e-5,0.3978 -0.0761,0.78046 -0.22838,1.14798 -0.15225,0.36752 -0.36902,0.69196 -0.65031,0.9733 -0.28131,0.28128 -0.60575,0.49807 -0.97328,0.65033 C 212.78049,389.92383 212.39781,389.99997 212,390 H 68 c -0.397835,-3e-5 -0.780518,-0.0762 -1.148064,-0.22839 -0.367538,-0.15226 -0.691955,-0.36905 -0.973259,-0.65033 -0.281303,-0.28134 -0.498077,-0.60578 -0.650322,-0.9733 C 65.076111,387.78046 64.999992,387.3978 65,387 v -14 c -8e-6,-0.39786 0.07611,-0.78055 0.228355,-1.1481 0.152245,-0.36756 0.369019,-0.69196 0.650322,-0.97324 0.281304,-0.28131 0.605721,-0.49808 0.973267,-0.65033 C 67.219482,370.07611 67.602165,370 68,370 Z"
           style="fill:none;stroke:#2f586e;stroke-width:1;stroke-linecap:butt;stroke-linejoin:miter;stroke-miterlimit:10;stroke-dasharray:none;stroke-opacity:1"
           id="path1042" /></g><g
         id="g1044"
         transform="scale(2.9941626)"><text
           xml:space="preserve"
           transform="translate(72.96875,384)"
           style="font-variant:normal;font-weight:normal;font-size:12px;font-family:Arial;-inkscape-font-specification:ArialMT;writing-mode:lr-tb;fill:#000000;fill-opacity:1;fill-rule:nonzero;stroke:none"
           id="text1048"><tspan
             x="0 7.3300781 15.996094 19.330078 23.326172 30 36.673828 43.347656 47.34375 50.677734 54.011719 62.677734 69.351562 76.025391 84.691406 88.025391 91.359375 100.02539 104.02148 110.69531 117.36914 124.04297 130.7168"
             y="0"
             sodipodi:role="line"
             id="tspan1046">FC (128), ReLU, Dropout</tspan></text></g><g
         id="g1050"
         transform="matrix(2.9941626,0,0,2.9941626,1.4970813,1.4970813)"><path
           d="m 210,540 h 74 c 0.3978,0 0.78046,0.0761 1.14801,0.22827 0.36752,0.15228 0.69196,0.36908 0.9733,0.65039 0.28128,0.28131 0.49804,0.60572 0.6503,0.97327 0.15225,0.36749 0.22836,0.75018 0.22839,1.14807 v 14 c -3e-5,0.39783 -0.0761,0.78052 -0.22839,1.14801 -0.15226,0.36749 -0.36902,0.69196 -0.6503,0.97327 -0.28134,0.28131 -0.60578,0.49804 -0.9733,0.65027 C 284.78046,559.92383 284.3978,559.99994 284,560 h -74 c -0.39784,-6e-5 -0.78053,-0.0762 -1.14809,-0.22845 -0.36753,-0.15223 -0.69195,-0.36896 -0.97325,-0.65027 -0.28132,-0.28131 -0.49809,-0.60578 -0.65033,-0.97327 C 207.0761,557.78052 206.99998,557.39783 207,557 v -14 c -2e-5,-0.39789 0.0761,-0.78058 0.22833,-1.14807 0.15224,-0.36755 0.36901,-0.69196 0.65033,-0.97327 0.2813,-0.28131 0.60572,-0.49811 0.97325,-0.65039 C 209.21947,540.07611 209.60216,540 210,540 Z"
           style="fill:#c2d0dc;fill-opacity:1;fill-rule:nonzero;stroke:none"
           id="path1052" /><path
           d="m 210,540 h 74 c 0.3978,0 0.78046,0.0761 1.14801,0.22827 0.36752,0.15228 0.69196,0.36908 0.9733,0.65039 0.28128,0.28131 0.49804,0.60572 0.6503,0.97327 0.15225,0.36749 0.22836,0.75018 0.22839,1.14807 v 14 c -3e-5,0.39783 -0.0761,0.78052 -0.22839,1.14801 -0.15226,0.36749 -0.36902,0.69196 -0.6503,0.97327 -0.28134,0.28131 -0.60578,0.49804 -0.9733,0.65027 C 284.78046,559.92383 284.3978,559.99994 284,560 h -74 c -0.39784,-6e-5 -0.78053,-0.0762 -1.14809,-0.22845 -0.36753,-0.15223 -0.69195,-0.36896 -0.97325,-0.65027 -0.28132,-0.28131 -0.49809,-0.60578 -0.65033,-0.97327 C 207.0761,557.78052 206.99998,557.39783 207,557 v -14 c -2e-5,-0.39789 0.0761,-0.78058 0.22833,-1.14807 0.15224,-0.36755 0.36901,-0.69196 0.65033,-0.97327 0.2813,-0.28131 0.60572,-0.49811 0.97325,-0.65039 C 209.21947,540.07611 209.60216,540 210,540 Z"
           style="fill:none;stroke:#2f586e;stroke-width:1;stroke-linecap:butt;stroke-linejoin:miter;stroke-miterlimit:10;stroke-dasharray:none;stroke-opacity:1"
           id="path1054" /></g><g
         id="g1056"
         transform="scale(2.9941626)"><text
           xml:space="preserve"
           transform="translate(230,554)"
           style="font-variant:normal;font-weight:normal;font-size:12px;font-family:Arial;-inkscape-font-specification:ArialMT;writing-mode:lr-tb;fill:#000000;fill-opacity:1;fill-rule:nonzero;stroke:none"
           id="text1060"><tspan
             x="0 7.3300781 15.996094 19.330078 23.326172 30"
             y="0"
             sodipodi:role="line"
             id="tspan1058">FC (1)</tspan></text></g><g
         id="g1062"
         transform="matrix(2.9941626,0,0,2.9941626,1.4970813,1.4970813)"><path
           d="m 81.75,585 h 78.5 c 0.59672,0 1.17075,0.11414 1.72206,0.34247 0.55132,0.22839 1.03795,0.55359 1.45992,0.97552 0.42195,0.42194 0.7471,0.90857 0.97546,1.4599 0.22838,0.55133 0.34256,1.12537 0.34256,1.72211 v 21 c 0,0.59668 -0.11418,1.17065 -0.34256,1.72198 -0.22836,0.55134 -0.55351,1.03797 -0.97546,1.4599 -0.42197,0.42194 -0.9086,0.74708 -1.45992,0.97553 -0.55131,0.22833 -1.12534,0.34253 -1.72206,0.34259 h -78.5 c -0.596748,-6e-5 -1.170776,-0.11426 -1.722084,-0.34259 -0.551323,-0.22845 -1.037956,-0.55359 -1.459908,-0.97553 -0.421959,-0.42193 -0.747123,-0.90856 -0.975479,-1.4599 C 77.364174,611.67065 77.249992,611.09668 77.25,610.5 v -21 c -8e-6,-0.59674 0.114174,-1.17078 0.342529,-1.72211 0.228356,-0.55133 0.55352,-1.03796 0.975479,-1.4599 0.421952,-0.42193 0.908585,-0.74713 1.459908,-0.97552 C 80.579224,585.11414 81.153252,585 81.75,585 Z"
           style="fill:#c2d0dc;fill-opacity:1;fill-rule:nonzero;stroke:none"
           id="path1064" /><path
           d="m 81.75,585 h 78.5 c 0.59672,0 1.17075,0.11414 1.72206,0.34247 0.55132,0.22839 1.03795,0.55359 1.45992,0.97552 0.42195,0.42194 0.7471,0.90857 0.97546,1.4599 0.22838,0.55133 0.34256,1.12537 0.34256,1.72211 v 21 c 0,0.59668 -0.11418,1.17065 -0.34256,1.72198 -0.22836,0.55134 -0.55351,1.03797 -0.97546,1.4599 -0.42197,0.42194 -0.9086,0.74708 -1.45992,0.97553 -0.55131,0.22833 -1.12534,0.34253 -1.72206,0.34259 h -78.5 c -0.596748,-6e-5 -1.170776,-0.11426 -1.722084,-0.34259 -0.551323,-0.22845 -1.037956,-0.55359 -1.459908,-0.97553 -0.421959,-0.42193 -0.747123,-0.90856 -0.975479,-1.4599 C 77.364174,611.67065 77.249992,611.09668 77.25,610.5 v -21 c -8e-6,-0.59674 0.114174,-1.17078 0.342529,-1.72211 0.228356,-0.55133 0.55352,-1.03796 0.975479,-1.4599 0.421952,-0.42193 0.908585,-0.74713 1.459908,-0.97552 C 80.579224,585.11414 81.153252,585 81.75,585 Z"
           style="fill:none;stroke:#2f586e;stroke-width:1;stroke-linecap:butt;stroke-linejoin:miter;stroke-miterlimit:10;stroke-dasharray:none;stroke-opacity:1"
           id="path1066" /></g><g
         id="g1068"
         transform="scale(2.9941626)"><text
           xml:space="preserve"
           transform="translate(99.65625,604)"
           style="font-variant:normal;font-weight:normal;font-size:12px;font-family:Arial;-inkscape-font-specification:ArialMT;writing-mode:lr-tb;fill:#000000;fill-opacity:1;fill-rule:nonzero;stroke:none"
           id="text1072"><tspan
             x="0 8.0039062 12 18.673828 24.673828 27.339844 34.013672"
             y="0"
             sodipodi:role="line"
             id="tspan1070">Breslow</tspan></text></g><g
         id="g1074"
         transform="matrix(2.9941626,0,0,2.9941626,1.4970813,1.4970813)"><path
           d="m 324.25,585 h 78.5 c 0.59671,0 1.17072,0.11414 1.72202,0.34247 0.55133,0.22839 1.03796,0.55359 1.45993,0.97552 0.42193,0.42194 0.7471,0.90857 0.97549,1.4599 0.22836,0.55133 0.34253,1.12537 0.34256,1.72211 v 21 c -3e-5,0.59668 -0.1142,1.17065 -0.34256,1.72198 -0.22839,0.55134 -0.55356,1.03797 -0.97549,1.4599 -0.42197,0.42194 -0.9086,0.74708 -1.45993,0.97553 -0.5513,0.22833 -1.12531,0.34253 -1.72202,0.34259 h -78.5 c -0.59677,-6e-5 -1.17081,-0.11426 -1.72211,-0.34259 -0.5513,-0.22845 -1.03793,-0.55359 -1.45987,-0.97553 -0.42196,-0.42193 -0.74713,-0.90856 -0.97549,-1.4599 C 319.86417,611.67065 319.75,611.09668 319.75,610.5 v -21 c 0,-0.59674 0.11417,-1.17078 0.34253,-1.72211 0.22836,-0.55133 0.55353,-1.03796 0.97549,-1.4599 0.42194,-0.42193 0.90857,-0.74713 1.45987,-0.97552 C 323.07919,585.11414 323.65323,585 324.25,585 Z"
           style="fill:#c2d0dc;fill-opacity:1;fill-rule:nonzero;stroke:none"
           id="path1076" /><path
           d="m 324.25,585 h 78.5 c 0.59671,0 1.17072,0.11414 1.72202,0.34247 0.55133,0.22839 1.03796,0.55359 1.45993,0.97552 0.42193,0.42194 0.7471,0.90857 0.97549,1.4599 0.22836,0.55133 0.34253,1.12537 0.34256,1.72211 v 21 c -3e-5,0.59668 -0.1142,1.17065 -0.34256,1.72198 -0.22839,0.55134 -0.55356,1.03797 -0.97549,1.4599 -0.42197,0.42194 -0.9086,0.74708 -1.45993,0.97553 -0.5513,0.22833 -1.12531,0.34253 -1.72202,0.34259 h -78.5 c -0.59677,-6e-5 -1.17081,-0.11426 -1.72211,-0.34259 -0.5513,-0.22845 -1.03793,-0.55359 -1.45987,-0.97553 -0.42196,-0.42193 -0.74713,-0.90856 -0.97549,-1.4599 C 319.86417,611.67065 319.75,611.09668 319.75,610.5 v -21 c 0,-0.59674 0.11417,-1.17078 0.34253,-1.72211 0.22836,-0.55133 0.55353,-1.03796 0.97549,-1.4599 0.42194,-0.42193 0.90857,-0.74713 1.45987,-0.97552 C 323.07919,585.11414 323.65323,585 324.25,585 Z"
           style="fill:none;stroke:#2f586e;stroke-width:1;stroke-linecap:butt;stroke-linejoin:miter;stroke-miterlimit:10;stroke-dasharray:none;stroke-opacity:1"
           id="path1078" /></g><g
         id="g1080"
         transform="scale(2.9941626)"><text
           xml:space="preserve"
           transform="translate(341.98438,604)"
           style="font-variant:normal;font-weight:normal;font-size:12px;font-family:Arial;-inkscape-font-specification:ArialMT;writing-mode:lr-tb;fill:#000000;fill-opacity:1;fill-rule:nonzero;stroke:none"
           id="text1084"><tspan
             x="0 8.6660156 15.339844 18.005859 24.679688 31.353516 37.353516"
             y="0"
             sodipodi:role="line"
             id="tspan1082">Relapse</tspan></text></g><g
         id="g1086"
         transform="matrix(2.9941626,0,0,2.9941626,1.4970813,1.4970813)"><path
           d="m 121,560 v 20 l -0.03,-1.37"
           style="fill:none;stroke:#000000;stroke-width:1;stroke-linecap:butt;stroke-linejoin:miter;stroke-miterlimit:10;stroke-dasharray:none;stroke-opacity:1"
           id="path1088" /><path
           d="m 121.08,583.88 -3.64,-6.92999 3.53,1.67999 3.47,-1.82 z"
           style="fill:#000000;fill-opacity:1;fill-rule:nonzero;stroke:none"
           id="path1090" /><path
           d="m 121.08,583.88 -3.64,-6.92999 3.53,1.67999 3.47,-1.82 z"
           style="fill:none;stroke:#000000;stroke-width:1;stroke-linecap:butt;stroke-linejoin:miter;stroke-miterlimit:10;stroke-dasharray:none;stroke-opacity:1"
           id="path1092" /><path
           d="m 84,540 h 74 c 0.39781,0 0.7805,0.0761 1.14804,0.22827 0.36754,0.15228 0.69196,0.36908 0.97327,0.65039 0.28129,0.28131 0.49806,0.60572 0.6503,0.97327 0.15225,0.36749 0.22837,0.75018 0.22839,1.14807 v 14 c -2e-5,0.39783 -0.0761,0.78052 -0.22839,1.14801 -0.15224,0.36749 -0.36901,0.69196 -0.6503,0.97327 -0.28131,0.28131 -0.60573,0.49804 -0.97327,0.65027 C 158.7805,559.92383 158.39781,559.99994 158,560 H 84 c -0.397835,-6e-5 -0.780518,-0.0762 -1.148056,-0.22845 -0.367538,-0.15223 -0.691963,-0.36896 -0.973267,-0.65027 -0.281303,-0.28131 -0.498085,-0.60578 -0.650329,-0.97327 C 81.076103,557.78052 80.999992,557.39783 81,557 v -14 c -8e-6,-0.39789 0.0761,-0.78058 0.228348,-1.14807 0.152244,-0.36755 0.369026,-0.69196 0.650329,-0.97327 0.281304,-0.28131 0.605729,-0.49811 0.973267,-0.65039 C 83.219482,540.07611 83.602165,540 84,540 Z"
           style="fill:#c2d0dc;fill-opacity:1;fill-rule:nonzero;stroke:none"
           id="path1094" /><path
           d="m 84,540 h 74 c 0.39781,0 0.7805,0.0761 1.14804,0.22827 0.36754,0.15228 0.69196,0.36908 0.97327,0.65039 0.28129,0.28131 0.49806,0.60572 0.6503,0.97327 0.15225,0.36749 0.22837,0.75018 0.22839,1.14807 v 14 c -2e-5,0.39783 -0.0761,0.78052 -0.22839,1.14801 -0.15224,0.36749 -0.36901,0.69196 -0.6503,0.97327 -0.28131,0.28131 -0.60573,0.49804 -0.97327,0.65027 C 158.7805,559.92383 158.39781,559.99994 158,560 H 84 c -0.397835,-6e-5 -0.780518,-0.0762 -1.148056,-0.22845 -0.367538,-0.15223 -0.691963,-0.36896 -0.973267,-0.65027 -0.281303,-0.28131 -0.498085,-0.60578 -0.650329,-0.97327 C 81.076103,557.78052 80.999992,557.39783 81,557 v -14 c -8e-6,-0.39789 0.0761,-0.78058 0.228348,-1.14807 0.152244,-0.36755 0.369026,-0.69196 0.650329,-0.97327 0.281304,-0.28131 0.605729,-0.49811 0.973267,-0.65039 C 83.219482,540.07611 83.602165,540 84,540 Z"
           style="fill:none;stroke:#2f586e;stroke-width:1;stroke-linecap:butt;stroke-linejoin:miter;stroke-miterlimit:10;stroke-dasharray:none;stroke-opacity:1"
           id="path1096" /></g><g
         id="g1098"
         transform="scale(2.9941626)"><text
           xml:space="preserve"
           transform="translate(104,554)"
           style="font-variant:normal;font-weight:normal;font-size:12px;font-family:Arial;-inkscape-font-specification:ArialMT;writing-mode:lr-tb;fill:#000000;fill-opacity:1;fill-rule:nonzero;stroke:none"
           id="text1102"><tspan
             x="0 7.3300781 15.996094 19.330078 23.326172 30"
             y="0"
             sodipodi:role="line"
             id="tspan1100">FC (5)</tspan></text><path
           d="M 235.75999,155.17999 215.45,182.69"
           style="fill:none;stroke:#000000;stroke-width:1;stroke-linecap:butt;stroke-linejoin:miter;stroke-miterlimit:10;stroke-dasharray:none;stroke-opacity:1"
           id="path1104" /><path
           d="m 211.89,187.52 1.53,-8.80999 2.03,3.97999 4.41,0.77001 z"
           style="fill:#000000;fill-opacity:1;fill-rule:nonzero;stroke:none"
           id="path1106" /><path
           d="m 211.89,187.52 1.53,-8.80999 2.03,3.97999 4.41,0.77001 z"
           style="fill:none;stroke:#000000;stroke-width:1;stroke-linecap:butt;stroke-linejoin:miter;stroke-miterlimit:10;stroke-dasharray:none;stroke-opacity:1"
           id="path1108" /></g><g
         id="g1110"
         transform="matrix(2.9941626,0,0,2.9941626,1.4970813,1.4970813)"><path
           d="m 353.70001,380 v 42.5 H 286.12"
           style="fill:none;stroke:#000000;stroke-width:1;stroke-linecap:butt;stroke-linejoin:miter;stroke-miterlimit:10;stroke-dasharray:none;stroke-opacity:1"
           id="path1112" /><path
           d="m 280.87,422.5 7,-3.5 -1.75,3.5 1.75,3.5 z"
           style="fill:#000000;fill-opacity:1;fill-rule:nonzero;stroke:none"
           id="path1114" /><path
           d="m 280.87,422.5 7,-3.5 -1.75,3.5 1.75,3.5 z"
           style="fill:none;stroke:#000000;stroke-width:1;stroke-linecap:butt;stroke-linejoin:miter;stroke-miterlimit:10;stroke-dasharray:none;stroke-opacity:1"
           id="path1116" /><path
           d="M 282.25,360 H 425 c 0.3978,0 0.78049,0.0761 1.14804,0.22836 0.36752,0.15222 0.69193,0.36899 0.97327,0.6503 0.28128,0.28128 0.49804,0.60572 0.65027,0.97324 0.15225,0.36755 0.22839,0.75024 0.22842,1.1481 v 14 c -3e-5,0.3978 -0.0762,0.78046 -0.22842,1.14798 -0.15223,0.36755 -0.36899,0.69199 -0.65027,0.9733 -0.28134,0.28128 -0.60578,0.49807 -0.9733,0.65033 C 425.78049,379.92386 425.3978,379.99997 425,380 H 282.25 c -0.39786,-3e-5 -0.78055,-0.0761 -1.14807,-0.22839 -0.36755,-0.15226 -0.69199,-0.36905 -0.97327,-0.65033 -0.28131,-0.28131 -0.49808,-0.60575 -0.65033,-0.9733 C 279.32608,377.78046 279.24997,377.3978 279.25,377 v -14 c -3e-5,-0.39786 0.0761,-0.78055 0.22833,-1.1481 0.15225,-0.36752 0.36902,-0.69196 0.65033,-0.97324 0.28128,-0.28131 0.60572,-0.49808 0.97327,-0.6503 C 281.46945,360.07611 281.85214,360 282.25,360 Z"
           style="fill:#c2d0dc;fill-opacity:1;fill-rule:nonzero;stroke:none"
           id="path1118" /><path
           d="M 282.25,360 H 425 c 0.3978,0 0.78049,0.0761 1.14804,0.22836 0.36752,0.15222 0.69193,0.36899 0.97327,0.6503 0.28128,0.28128 0.49804,0.60572 0.65027,0.97324 0.15225,0.36755 0.22839,0.75024 0.22842,1.1481 v 14 c -3e-5,0.3978 -0.0762,0.78046 -0.22842,1.14798 -0.15223,0.36755 -0.36899,0.69199 -0.65027,0.9733 -0.28134,0.28128 -0.60578,0.49807 -0.9733,0.65033 C 425.78049,379.92386 425.3978,379.99997 425,380 H 282.25 c -0.39786,-3e-5 -0.78055,-0.0761 -1.14807,-0.22839 -0.36755,-0.15226 -0.69199,-0.36905 -0.97327,-0.65033 -0.28131,-0.28131 -0.49808,-0.60575 -0.65033,-0.9733 C 279.32608,377.78046 279.24997,377.3978 279.25,377 v -14 c -3e-5,-0.39786 0.0761,-0.78055 0.22833,-1.1481 0.15225,-0.36752 0.36902,-0.69196 0.65033,-0.97324 0.28128,-0.28131 0.60572,-0.49808 0.97327,-0.6503 C 281.46945,360.07611 281.85214,360 282.25,360 Z"
           style="fill:none;stroke:#2f586e;stroke-width:1;stroke-linecap:butt;stroke-linejoin:miter;stroke-miterlimit:10;stroke-dasharray:none;stroke-opacity:1"
           id="path1120" /></g><g
         id="g1122"
         transform="scale(2.9941626)"><text
           xml:space="preserve"
           transform="translate(286.46875,374)"
           style="font-variant:normal;font-weight:normal;font-size:12px;font-family:Arial;-inkscape-font-specification:ArialMT;writing-mode:lr-tb;fill:#000000;fill-opacity:1;fill-rule:nonzero;stroke:none"
           id="text1126"><tspan
             x="0 7.3300781 15.996094 19.330078 23.326172 30 36.673828 43.347656 47.34375 50.677734 54.011719 62.677734 69.351562 76.025391 84.691406 88.025391 91.359375 100.02539 104.02148 110.69531 117.36914 124.04297 130.7168"
             y="0"
             sodipodi:role="line"
             id="tspan1124">FC (128), ReLU, Dropout</tspan></text></g><g
         id="g1128"
         transform="matrix(2.9941626,0,0,2.9941626,1.4970813,1.4970813)"><path
           d="m 247.10001,435 v 20 l -0.06,8.63"
           style="fill:none;stroke:#000000;stroke-width:1;stroke-linecap:butt;stroke-linejoin:miter;stroke-miterlimit:10;stroke-dasharray:none;stroke-opacity:1"
           id="path1130" /><path
           d="M 247.00999,468.88 243.55,461.85999 247.03999,463.63 250.55,461.91 Z"
           style="fill:#000000;fill-opacity:1;fill-rule:nonzero;stroke:none"
           id="path1132" /><path
           d="M 247.00999,468.88 243.55,461.85999 247.03999,463.63 250.55,461.91 Z"
           style="fill:none;stroke:#000000;stroke-width:1;stroke-linecap:butt;stroke-linejoin:miter;stroke-miterlimit:10;stroke-dasharray:none;stroke-opacity:1"
           id="path1134" /><path
           d="m 180,490 h 134 c 0.3978,0 0.78049,0.0761 1.14801,0.22833 0.36752,0.15219 0.69196,0.36896 0.97327,0.6503 0.28128,0.28128 0.49804,0.60571 0.6503,0.97327 0.15225,0.36755 0.22839,0.75024 0.22842,1.1481 v 14 c -3e-5,0.3978 -0.0762,0.78046 -0.22842,1.14798 -0.15226,0.36755 -0.36902,0.69199 -0.6503,0.9733 -0.28131,0.28128 -0.60575,0.49804 -0.97327,0.6503 C 314.78049,509.92383 314.3978,509.99997 314,510 H 180 c -0.39784,-3e-5 -0.78053,-0.0761 -1.14807,-0.22839 -0.36754,-0.15229 -0.69197,-0.36905 -0.97327,-0.65033 -0.28131,-0.28131 -0.49809,-0.60575 -0.65033,-0.9733 C 177.0761,507.78046 176.99998,507.3978 177,507 v -14 c -2e-5,-0.39786 0.0761,-0.78055 0.22833,-1.14807 0.15224,-0.36759 0.36902,-0.69202 0.65033,-0.9733 0.2813,-0.28134 0.60573,-0.49811 0.97327,-0.6503 C 179.21947,490.07611 179.60216,490 180,490 Z"
           style="fill:#c2d0dc;fill-opacity:1;fill-rule:nonzero;stroke:none"
           id="path1136" /><path
           d="m 180,490 h 134 c 0.3978,0 0.78049,0.0761 1.14801,0.22833 0.36752,0.15219 0.69196,0.36896 0.97327,0.6503 0.28128,0.28128 0.49804,0.60571 0.6503,0.97327 0.15225,0.36755 0.22839,0.75024 0.22842,1.1481 v 14 c -3e-5,0.3978 -0.0762,0.78046 -0.22842,1.14798 -0.15226,0.36755 -0.36902,0.69199 -0.6503,0.9733 -0.28131,0.28128 -0.60575,0.49804 -0.97327,0.6503 C 314.78049,509.92383 314.3978,509.99997 314,510 H 180 c -0.39784,-3e-5 -0.78053,-0.0761 -1.14807,-0.22839 -0.36754,-0.15229 -0.69197,-0.36905 -0.97327,-0.65033 -0.28131,-0.28131 -0.49809,-0.60575 -0.65033,-0.9733 C 177.0761,507.78046 176.99998,507.3978 177,507 v -14 c -2e-5,-0.39786 0.0761,-0.78055 0.22833,-1.14807 0.15224,-0.36759 0.36902,-0.69202 0.65033,-0.9733 0.2813,-0.28134 0.60573,-0.49811 0.97327,-0.6503 C 179.21947,490.07611 179.60216,490 180,490 Z"
           style="fill:none;stroke:#2f586e;stroke-width:1;stroke-linecap:butt;stroke-linejoin:miter;stroke-miterlimit:10;stroke-dasharray:none;stroke-opacity:1"
           id="path1138" /></g><g
         id="g1140"
         transform="scale(2.9941626)"><text
           xml:space="preserve"
           transform="translate(179.96875,504)"
           style="font-variant:normal;font-weight:normal;font-size:12px;font-family:Arial;-inkscape-font-specification:ArialMT;writing-mode:lr-tb;fill:#000000;fill-opacity:1;fill-rule:nonzero;stroke:none"
           id="text1144"><tspan
             x="0 7.3300781 15.996094 19.330078 23.326172 30 36.673828 43.347656 47.34375 50.677734 54.011719 62.677734 69.351562 76.025391 84.691406 88.025391 91.359375 100.02539 104.02148 110.69531 117.36914 124.04297 130.7168"
             y="0"
             sodipodi:role="line"
             id="tspan1142">FC (256), ReLU, Dropout</tspan></text></g></g></g></svg>
